<?xml version="1.0" encoding="utf-8"?>
<!-- Generator: Adobe Illustrator 22.1.0, SVG Export Plug-In . SVG Version: 6.00 Build 0)  -->
<svg version="1.1" id="Layer_1" xmlns="http://www.w3.org/2000/svg" xmlns:xlink="http://www.w3.org/1999/xlink" x="0px" y="0px"
	 viewBox="0 0 100 100" style="enable-background:new 0 0 100 100;" xml:space="preserve">
<style type="text/css">
	.st0{fill:#007BFF;}
	.st1{fill:#007BFF;stroke:#000000;stroke-width:0;stroke-linecap:round;stroke-linejoin:round;}
</style>
<g>
	<path class="st0" d="M15.2,19.7L21.6,92l28.9,8l29-8L86,19.7H15.2z M72.6,36.8l-0.4,4.5l-0.2,2H50.6h0H38l0.8,9.1h11.7h0h20.6
		L71,54.8l-2.1,23.3l-0.1,1.5l-18.2,5v0l0,0l-18.2-5l-1.2-13.9H40l0.6,7.1l9.9,2.7l0,0v0l9.9-2.7l1-11.5H50.6h0H30.7l-2.2-24.4
		l-0.2-2.4h22.2h0h22.2L72.6,36.8z"/>
	<polygon class="st0" points="79.6,9 73.2,9 73.2,0 68.7,0 68.7,0 68.7,13.5 79.6,13.5 	"/>
	<polygon class="st0" points="55.7,6.8 58.8,11.6 58.9,11.6 62,6.8 62,13.5 66.5,13.5 66.5,0 61.8,0 58.9,4.7 56,0 51.3,0 
		51.3,13.5 55.7,13.5 	"/>
	<polygon class="st0" points="40.8,4.5 40.8,4.5 40.8,13.5 45.3,13.5 45.3,4.5 49.3,4.5 49.3,0 36.9,0 36.9,4.5 40.8,4.5 	"/>
	<polygon class="st0" points="26.3,13.5 26.3,9 30.4,9 30.4,13.5 34.9,13.5 34.9,0 30.4,0 30.4,4.5 26.3,4.5 26.3,0 21.8,0 
		21.8,13.5 	"/>
</g>
</svg>
