<?xml version="1.0" encoding="utf-8"?>
<!-- Generator: Adobe Illustrator 24.0.3, SVG Export Plug-In . SVG Version: 6.00 Build 0)  -->
<svg version="1.1" id="Layer_1" xmlns="http://www.w3.org/2000/svg" xmlns:xlink="http://www.w3.org/1999/xlink" x="0px" y="0px"
	 viewBox="0 0 40 40" enable-background="new 0 0 40 40" xml:space="preserve">
<path d="M16.18231,18.6591c0,0,3.78536-0.28102,3.78536-4.71992c0-4.43922-3.09691-6.60564-7.01981-6.60564H0.03914v24.80697
	h12.90873c0,0,7.88031,0.24892,7.88031-7.32188C20.82818,24.81871,21.17174,18.6591,16.18231,18.6591z M12.01871,11.74271h0.92916
	c0,0,1.75468,0,1.75468,2.58106c0,2.58074-1.03194,2.95491-2.20243,2.95491H5.72689V11.7427
	C5.72689,11.7427,12.01871,11.7427,12.01871,11.74271z M12.58309,27.73151h-6.8562v-6.62935h7.22098
	c0,0,2.61526-0.03428,2.61526,3.40681C15.56313,27.41057,13.60979,27.70959,12.58309,27.73151z M31.33793,13.64517
	c-9.53996,0-9.53151,9.53158-9.53151,9.53158s-0.65456,9.48266,9.53151,9.48266c0,0,8.4883,0.48493,8.4883-6.59655h-4.3654
	c0,0,0.1456,2.66677-3.9773,2.66677c0,0-4.36611,0.2926-4.36611-4.31585h12.8544
	C39.97182,24.4137,41.37832,13.64517,31.33793,13.64517z M27.06943,21.10216c0,0,0.53307-3.82356,4.36548-3.82356
	c3.83162,0,3.78364,3.82356,3.78364,3.82356H27.06943z M36.23546,11.84979H26.0007V8.795h10.23475
	C36.23546,8.795,36.23546,11.84979,36.23546,11.84979z"/>
<sodipodi:namedview  bordercolor="#666666" borderopacity="1" gridtolerance="10" guidetolerance="10" id="namedview33" objecttolerance="10" pagecolor="#ffffff" showgrid="false">
	</sodipodi:namedview>
<g id="g10" transform="matrix(1.25,0,0,-1.25,0,312.5)">
	<g id="g14">
		<g>
			<g id="g16">
				<g id="g62" transform="translate(123.0422,246.9921)">
					<path id="path64" d="M-647.58698,222.82736c-8.83649,0-15.99994-7.16347-15.99994-15.99994
						c0-6.77838,4.21735-12.57297,10.16919-14.90427c-0.13983,1.26591-0.2663,3.2128,0.05548,4.59479
						c0.29077,1.24872,1.87616,7.953,1.87616,7.953s-0.47858,0.95848-0.47858,2.37549c0,2.22479,1.28949,3.88576,2.89514,3.88576
						c1.36505,0,2.02435-1.02486,2.02435-2.25378c0-1.3728-0.87402-3.42526-1.32507-5.32727
						c-0.37695-1.5925,0.79865-2.8912,2.36932-2.8912c2.84375,0,5.02972,2.99849,5.02972,7.32675
						c0,3.83092-2.75275,6.50938-6.68335,6.50938c-4.55249,0-7.22467-3.41464-7.22467-6.94351
						c0-1.37517,0.52972-2.84975,1.19073-3.65137c0.1308-0.15845,0.1499-0.29721,0.11096-0.45892
						c-0.12146-0.50534-0.39136-1.59209-0.44434-1.81453c-0.06976-0.29288-0.23187-0.35504-0.5351-0.21391
						c-1.99829,0.93015-3.24768,3.85178-3.24768,6.19841c0,5.04712,3.66711,9.6823,10.57178,9.6823
						c5.55035,0,9.86371-3.95512,9.86371-9.24083c0-5.51418-3.47681-9.95195-8.30255-9.95195
						c-1.62134,0-3.14551,0.84227-3.66724,1.83722c0,0-0.80231-3.05487-0.99683-3.80351
						c-0.36115-1.38972-1.3363-3.13173-1.98853-4.19449c1.49701-0.4635,3.08789-0.71349,4.7373-0.71349
						c8.83661,0,16.00006,7.16345,16.00006,15.99994C-631.58691,215.66389-638.75037,222.82736-647.58698,222.82736"/>
				</g>
			</g>
		</g>
	</g>
</g>
</svg>
