<?xml version="1.0" encoding="utf-8"?>
<!-- Generator: Adobe Illustrator 22.1.0, SVG Export Plug-In . SVG Version: 6.00 Build 0)  -->
<svg version="1.1" id="Layer_1" xmlns="http://www.w3.org/2000/svg" xmlns:xlink="http://www.w3.org/1999/xlink" x="0px" y="0px"
	 viewBox="0 0 100 100" style="enable-background:new 0 0 100 100;" xml:space="preserve">
<style type="text/css">
	.st0{fill:#FFFFFF;}
</style>
<g>
	<path class="st0" d="M50,0C22.4,0,0,23,0,51.3c0,22.7,14.3,41.9,34.2,48.6c2.5,0.5,3.4-1.1,3.4-2.5c0-1.2,0-5.3-0.1-9.5
		c-13.9,3.1-16.8-6-16.8-6c-2.3-5.9-5.6-7.5-5.6-7.5c-4.5-3.2,0.3-3.1,0.3-3.1c5,0.4,7.7,5.3,7.7,5.3c4.5,7.8,11.7,5.6,14.6,4.3
		c0.4-3.3,1.7-5.6,3.2-6.9c-11.1-1.3-22.8-5.7-22.8-25.3c0-5.6,2-10.2,5.2-13.8c-0.5-1.3-2.2-6.5,0.5-13.6c0,0,4.2-1.4,13.8,5.3
		c4-1.1,8.3-1.7,12.5-1.7c4.2,0,8.5,0.6,12.5,1.7c9.5-6.6,13.7-5.3,13.7-5.3c2.7,7.1,1,12.3,0.5,13.6c3.2,3.6,5.1,8.2,5.1,13.8
		c0,19.7-11.7,24-22.8,25.3c1.8,1.6,3.4,4.7,3.4,9.5c0,6.9-0.1,12.4-0.1,14.1c0,1.4,0.9,3,3.4,2.5c19.9-6.8,34.2-26,34.2-48.6
		C100,23,77.6,0,50,0"/>
	<path class="st0" d="M18.7,73c-0.1,0.3-0.5,0.3-0.9,0.2c-0.4-0.2-0.6-0.5-0.4-0.8c0.1-0.3,0.5-0.3,0.9-0.2
		C18.6,72.4,18.9,72.8,18.7,73 M21.2,75.3c-0.2,0.2-0.7,0.1-1-0.2c-0.3-0.4-0.4-0.8-0.1-1.1c0.2-0.2,0.7-0.1,1,0.2
		C21.4,74.6,21.4,75.1,21.2,75.3 M22.9,78.2c-0.3,0.2-0.8,0-1.1-0.4c-0.3-0.5-0.3-1,0-1.2c0.3-0.2,0.8,0,1.1,0.4
		C23.2,77.4,23.2,77.9,22.9,78.2 M25.7,81.5c-0.3,0.3-0.9,0.2-1.3-0.2c-0.4-0.4-0.6-1-0.3-1.3c0.3-0.3,0.9-0.2,1.3,0.2
		C25.9,80.6,26,81.2,25.7,81.5 M29.4,82.6c-0.1,0.4-0.7,0.6-1.2,0.4c-0.6-0.2-0.9-0.6-0.8-1.1c0.1-0.4,0.7-0.6,1.3-0.4
		C29.2,81.7,29.5,82.2,29.4,82.6 M33.6,83.1c0,0.4-0.5,0.8-1.1,0.8c-0.6,0-1.1-0.3-1.1-0.7c0-0.4,0.5-0.8,1.1-0.8
		C33.1,82.3,33.6,82.7,33.6,83.1 M37.7,82.9c0.1,0.4-0.3,0.8-0.9,0.9c-0.6,0.1-1.1-0.1-1.2-0.6c-0.1-0.4,0.3-0.8,0.9-1
		C37.1,82.3,37.7,82.5,37.7,82.9"/>
</g>
</svg>
