<svg version="1.1" width="24px" id="Layer_1" xmlns="http://www.w3.org/2000/svg" xmlns:xlink="http://www.w3.org/1999/xlink" x="0px" y="0px"
	  viewBox="0 0 100 100" style="enable-background:new 0 0 100 100;" xml:space="preserve">
<g>
	<path fill="var(--iconColor)" d="M4.2,5.4h91.7v89.2H4.2V5.4z M0,98.8h100V1.2H0V98.8z M70.7,48.2c2.1,0,2.9,0,3.1-0.1c0-0.3,0.1-0.5,0.1-0.7
		c0-2.3-1.1-6.4-5.4-6.4c-4,0-5.7,3.5-6.1,7.2H70.7L70.7,48.2z M62.3,54c0.1,5.6,2.7,9.4,9.1,9.4c2.5,0,4.6-0.3,6.8-1.3
		c0.3-0.1,0.5-0.1,0.5,0.3v5.2c0,0.4-0.1,0.6-0.4,0.8c-2.2,1.1-5,1.6-8.4,1.6c-11,0-15.1-8.1-15.1-17.2c0-9.8,5.1-17.9,14-17.9
		C77.9,35,81,42.6,81,48.8c0,2-0.1,3.6-0.3,4.4c-0.1,0.3-0.2,0.5-0.5,0.5c-0.8,0.1-3.3,0.3-7,0.3L62.3,54L62.3,54z M40,49.7
		c-1.2-4.6-4-14.7-5-19.6h-0.1C34,35,31.7,43.2,30,49.7H40z M28.2,56.5L25,68.9c-0.1,0.3-0.2,0.5-0.6,0.5h-6.1
		c-0.4,0-0.5-0.1-0.4-0.6l11.8-41.4C29.8,26.6,30,26,30,24c0-0.3,0.1-0.4,0.3-0.4h8.8c0.3,0,0.4,0.1,0.5,0.4l13.2,44.9
		c0.1,0.3,0,0.5-0.3,0.5h-6.9c-0.3,0-0.5-0.1-0.6-0.4l-3.4-12.5L28.2,56.5L28.2,56.5z"/>
</g>
</svg>
