<?xml version="1.0" encoding="utf-8"?>
<!-- Generator: Adobe Illustrator 22.1.0, SVG Export Plug-In . SVG Version: 6.00 Build 0)  -->
<svg version="1.1" width="24px" id="Layer_1" xmlns="http://www.w3.org/2000/svg" xmlns:xlink="http://www.w3.org/1999/xlink" x="0px" y="0px"
	 viewBox="0 0 100 100" style="enable-background:new 0 0 100 100;" xml:space="preserve">
<g>
	<path  d="M14.8,19.7L21.3,92l28.9,8l29-8l6.5-72.3H14.8z M70.8,52.4l-0.2,2.4l-2.1,23.3l-0.1,1.5l-18.2,5v0l0,0l-18.2-5
		l-1.2-13.9h8.9l0.6,7.1l9.9,2.7l0,0v0l9.9-2.7l1-11.5H50.3h0H30.4l-0.8-8.9h20.6h0h11.7l0.8-9.1H50.3h0H28.8L28,34.4h22.2h0h22.2
		L70.8,52.4z"/>
	<polygon  points="42.2,9 36,9 36,4.5 42.2,4.5 42.2,0 31.5,0 31.5,13.5 42.2,13.5 	"/>
	<polygon  points="68,4.7 61.8,4.7 61.8,3.9 68,3.9 68,0 57.3,0 57.3,8.8 63.5,8.8 63.5,9.6 57.3,9.6 57.3,13.7 68,13.7 
			"/>
	<polygon  points="50.6,9.6 44.4,9.6 44.4,13.7 55.1,13.7 55.1,4.7 48.9,4.7 48.9,3.9 55.1,3.9 55.1,0 44.4,0 44.4,0 
		44.4,8.8 50.6,8.8 	"/>
</g>
</svg>
