<?xml version="1.0" encoding="utf-8"?>
<!-- Generator: Adobe Illustrator 22.1.0, SVG Export Plug-In . SVG Version: 6.00 Build 0)  -->
<svg version="1.1" id="Layer_1" xmlns="http://www.w3.org/2000/svg" xmlns:xlink="http://www.w3.org/1999/xlink" x="0px" y="0px"
	 viewBox="0 0 100 100" style="enable-background:new 0 0 100 100;" xml:space="preserve">

<g>
	<g>
		<path  d="M0,99.8c0-33.3,0-66.7,0-100c33.3,0,66.7,0,100,0c0,33.3,0,66.7,0,100C66.7,99.8,33.3,99.8,0,99.8z M95.6,4.1
			C93,3.5,6,3.7,4.2,4.3C4.1,4.9,4,5.7,4,6.4c0,28.9,0,57.9,0,86.8c0,0.8,0.2,1.6,0.3,2.2C7,96,94,95.9,95.6,95.3
			C96.2,93.5,96.2,6.2,95.6,4.1z"/>
		<path  d="M14,68.4c0-14.7,0-29.2,0-43.9c1.4-0.1,2.8-0.3,4.2-0.4c4.5-0.2,9.1-0.5,13.5,0.7c5.7,1.6,9.4,5.3,11.3,10.8
			c2.1,6.3,2.2,12.8,0.4,19.3c-2.2,7.7-7.6,12.5-15.5,13.3C23.4,68.8,18.9,68.4,14,68.4z M20.2,62.6c1.6,0,2.9,0.1,4.2,0.1
			c6.9-0.1,11.3-3.6,12.9-10.3c1-4.2,0.9-8.4,0-12.6c-1.2-5.6-5.1-9.1-10.3-9.6c-2.3-0.2-4.5-0.4-6.9,0.3
			C20.2,41.2,20.2,51.7,20.2,62.6z"/>
		<path  d="M65.9,36.2c2.1,0,4,0,6.2,0c2,8.3,3.4,16.9,5.2,25.7c1.4-1.8,5.3-23.9,5.8-25.7c1.9,0,3.6,0,5.7,0
			c-2.7,10.9-5.4,21.6-8.2,32.5c-2.3,0-4.5,0-7,0c-1.6-8-3.2-16-4.8-24c-0.2,0-0.3,0-0.5,0c-1.1,3.9-1.8,7.9-2.7,11.9
			c-0.9,4-2,8.1-3,12.2c-2.3,0-4.5,0-6.9,0c-2.5-10.8-4.9-21.5-7.4-32.4c2-0.6,4-0.1,6.2-0.4c1.9,8.4,3.6,16.8,5.4,25.2
			C62.4,52.9,63.7,44.5,65.9,36.2z"/>
	</g>
</g>
</svg>
