<svg version="1.1" width="24px" id="Layer_1" xmlns="http://www.w3.org/2000/svg" xmlns:xlink="http://www.w3.org/1999/xlink" x="0px" y="0px"
	 viewBox="0 0 100 100" style="enable-background:new 0 0 100 100;" xml:space="preserve">
<path d="M0.7,56.4V45.2h13.9v-0.7H0.7V34.4h14.8v-0.7H0V57h15.6v-0.7H0.7L0.7,56.4z M28.1,40.3l-5.8,7.6l-5.6-7.6h-0.8l6.1,8.1
	L15.3,57H16l6.3-8.2l6.3,8.2h0.8l-6.7-8.7l6.1-8.1L28.1,40.3L28.1,40.3z M31.4,62.7V52.3h0.1c0.4,1.5,1.2,2.7,2.3,3.7
	c1.1,0.9,2.6,1.4,4.4,1.4c1.1,0,2.2-0.2,3.1-0.7c0.9-0.5,1.6-1.1,2.2-1.9c0.6-0.8,1.1-1.7,1.4-2.8c0.3-1.1,0.5-2.2,0.5-3.4
	c0-1.3-0.2-2.4-0.5-3.5c-0.3-1.1-0.8-2-1.4-2.8c-0.6-0.8-1.4-1.4-2.2-1.8c-0.9-0.4-1.9-0.7-3-0.7c-0.8,0-1.6,0.1-2.4,0.4
	c-0.7,0.2-1.4,0.6-1.9,1.1c-0.6,0.5-1.1,1-1.5,1.6c-0.4,0.6-0.7,1.3-0.9,2h-0.1v-4.7h-0.7v22.5H31.4L31.4,62.7z M38.2,56.7
	c-2,0-3.7-0.7-4.9-2.1s-1.9-3.4-1.9-6c0-1.1,0.2-2.1,0.5-3.1c0.3-1,0.7-1.8,1.3-2.6c0.6-0.7,1.3-1.3,2.1-1.8
	c0.8-0.4,1.8-0.7,2.9-0.7c1.1,0,2,0.2,2.8,0.7c0.8,0.4,1.5,1,2,1.8c0.5,0.7,0.9,1.6,1.2,2.6c0.3,1,0.4,2,0.4,3.1
	c0,1-0.1,1.9-0.4,2.9c-0.2,1-0.6,1.8-1.2,2.6c-0.5,0.8-1.2,1.4-2,1.9C40.3,56.5,39.3,56.7,38.2,56.7L38.2,56.7z M48.9,57v-9.5
	c0-0.9,0.1-1.8,0.4-2.7c0.3-0.9,0.7-1.6,1.2-2.3c0.5-0.7,1.2-1.2,2.1-1.6c0.8-0.4,1.8-0.5,3-0.5v-0.7c-1,0-1.9,0.1-2.6,0.3
	c-0.7,0.2-1.4,0.6-1.9,1c-0.5,0.4-1,0.9-1.3,1.4c-0.3,0.6-0.6,1.2-0.7,1.8h-0.1v-4.1h-0.7V57L48.9,57L48.9,57z M56.3,48.8h14
	c0-1.1-0.1-2.3-0.3-3.3c-0.3-1.1-0.7-2-1.3-2.8c-0.6-0.8-1.4-1.5-2.3-2s-2.1-0.7-3.4-0.7c-0.9,0-1.8,0.2-2.7,0.6
	c-0.9,0.4-1.7,1-2.3,1.7c-0.7,0.7-1.2,1.7-1.6,2.8c-0.4,1.1-0.6,2.3-0.6,3.7c0,1.2,0.1,2.4,0.4,3.5c0.3,1.1,0.7,2,1.3,2.8
	c0.6,0.8,1.3,1.4,2.3,1.8c0.9,0.4,2,0.6,3.3,0.6c1.9,0,3.5-0.5,4.8-1.6c1.3-1.1,2.1-2.6,2.3-4.5h-0.7c-0.3,1.8-1,3.2-2.2,4.1
	c-1.2,0.9-2.6,1.4-4.4,1.4c-1.2,0-2.2-0.2-3-0.6c-0.8-0.4-1.5-1-2-1.7c-0.5-0.7-0.9-1.6-1.2-2.5C56.5,51,56.4,49.9,56.3,48.8
	L56.3,48.8z M69.7,48.1H56.3c0.1-1.2,0.3-2.2,0.7-3.2c0.4-0.9,0.9-1.7,1.4-2.4c0.6-0.7,1.3-1.2,2.1-1.5c0.8-0.3,1.6-0.5,2.6-0.5
	c1.1,0,2,0.2,2.9,0.6c0.8,0.4,1.5,0.9,2.1,1.6c0.6,0.7,1,1.5,1.3,2.4C69.5,46.1,69.7,47.1,69.7,48.1L69.7,48.1z M83.8,45.2h0.7
	c0-1.9-0.5-3.2-1.6-4.1c-1.1-0.8-2.6-1.3-4.4-1.3c-1,0-1.9,0.1-2.6,0.4c-0.7,0.3-1.3,0.6-1.8,1c-0.5,0.4-0.8,0.9-1,1.4
	s-0.3,1-0.3,1.4c0,0.9,0.2,1.6,0.5,2.2c0.3,0.5,0.8,1,1.5,1.3c0.5,0.2,1,0.4,1.6,0.6c0.6,0.2,1.3,0.4,2.1,0.6
	c0.7,0.2,1.4,0.3,2.1,0.5c0.7,0.2,1.3,0.4,1.8,0.7c0.5,0.3,1,0.7,1.3,1.1c0.3,0.5,0.5,1.1,0.5,1.8c0,0.7-0.2,1.3-0.5,1.8
	c-0.3,0.5-0.8,0.9-1.3,1.2c-0.5,0.3-1.1,0.5-1.7,0.7c-0.6,0.1-1.3,0.2-1.9,0.2c-2,0-3.5-0.4-4.5-1.3c-1.1-0.9-1.6-2.3-1.6-4.1h-0.7
	c0,2.1,0.6,3.6,1.7,4.6c1.1,1,2.8,1.5,5.1,1.5c0.7,0,1.4-0.1,2.2-0.2c0.7-0.2,1.4-0.4,2-0.8c0.6-0.4,1-0.9,1.4-1.4
	c0.4-0.6,0.5-1.3,0.5-2.1c0-0.8-0.2-1.5-0.5-2c-0.3-0.5-0.7-0.9-1.2-1.2c-0.5-0.3-1.1-0.6-1.7-0.8c-0.6-0.2-1.3-0.4-1.9-0.5
	c-0.8-0.2-1.6-0.4-2.4-0.6c-0.7-0.2-1.3-0.4-1.9-0.6c-0.6-0.2-1-0.6-1.4-1c-0.3-0.4-0.5-1.1-0.5-1.9c0-0.2,0-0.4,0.1-0.8
	c0.1-0.4,0.3-0.8,0.6-1.2c0.3-0.4,0.8-0.8,1.5-1.1c0.7-0.3,1.6-0.5,2.8-0.5c0.8,0,1.5,0.1,2.2,0.3c0.7,0.2,1.2,0.5,1.7,0.8
	c0.5,0.4,0.8,0.9,1.1,1.4C83.7,43.7,83.8,44.4,83.8,45.2L83.8,45.2z M98.9,45.2h0.7c0-1.9-0.5-3.2-1.6-4.1c-1.1-0.8-2.6-1.3-4.4-1.3
	c-1,0-1.9,0.1-2.6,0.4c-0.7,0.3-1.3,0.6-1.8,1c-0.5,0.4-0.8,0.9-1,1.4s-0.3,1-0.3,1.4c0,0.9,0.2,1.6,0.5,2.2c0.3,0.5,0.8,1,1.5,1.3
	c0.5,0.2,1,0.4,1.6,0.6c0.6,0.2,1.3,0.4,2.1,0.6c0.7,0.2,1.4,0.3,2.1,0.5c0.7,0.2,1.3,0.4,1.8,0.7c0.5,0.3,1,0.7,1.3,1.1
	c0.3,0.5,0.5,1.1,0.5,1.8c0,0.7-0.2,1.3-0.5,1.8c-0.3,0.5-0.8,0.9-1.3,1.2c-0.5,0.3-1.1,0.5-1.7,0.7c-0.6,0.1-1.3,0.2-1.9,0.2
	c-2,0-3.5-0.4-4.5-1.3c-1.1-0.9-1.6-2.3-1.6-4.1h-0.7c0,2.1,0.6,3.6,1.7,4.6c1.1,1,2.8,1.5,5.1,1.5c0.7,0,1.4-0.1,2.2-0.2
	c0.7-0.2,1.4-0.4,2-0.8c0.6-0.4,1-0.9,1.4-1.4c0.4-0.6,0.5-1.3,0.5-2.1c0-0.8-0.2-1.5-0.5-2c-0.3-0.5-0.7-0.9-1.2-1.2
	c-0.5-0.3-1.1-0.6-1.7-0.8c-0.6-0.2-1.3-0.4-1.9-0.5c-0.8-0.2-1.6-0.4-2.4-0.6c-0.7-0.2-1.3-0.4-1.9-0.6c-0.6-0.2-1-0.6-1.4-1
	c-0.3-0.4-0.5-1.1-0.5-1.9c0-0.2,0-0.4,0.1-0.8c0.1-0.4,0.3-0.8,0.6-1.2c0.3-0.4,0.8-0.8,1.5-1.1c0.7-0.3,1.6-0.5,2.8-0.5
	c0.8,0,1.5,0.1,2.2,0.3c0.7,0.2,1.2,0.5,1.7,0.8c0.5,0.4,0.8,0.9,1.1,1.4C98.8,43.7,98.9,44.4,98.9,45.2L98.9,45.2z"/>
</svg>
