<svg version="1.1" width="20px" id="Layer_1" xmlns="http://www.w3.org/2000/svg" xmlns:xlink="http://www.w3.org/1999/xlink" x="0px" y="0px"
	 viewBox="0 0 100 100" style="enable-background:new 0 0 100 100;" xml:space="preserve">
<g>
	<path  d="M4.3,5.2H96v89.2H4.3V5.2z M0.1,98.5h100V1H0.1V98.5z M63.4,41.5c-0.6-0.3-1.5-0.4-2.5-0.4
		c-5.4,0-9.1,4.1-9.1,11c0,7.8,3.8,11,8.6,11c1,0,2.1-0.1,3-0.5V41.5z M61.2,34.7c0.9,0,1.4,0,2.2,0.1V23.7c0-0.3,0.2-0.4,0.4-0.4
		h6.8c0.3,0,0.4,0.1,0.4,0.3v39c0,1.2,0,2.6,0.2,4.2c0,0.3-0.1,0.3-0.4,0.5c-3.6,1.7-7.4,2.5-10.9,2.5c-9.2,0-15.8-5.7-15.8-17.3
		C44.1,42.5,50.6,34.7,61.2,34.7L61.2,34.7z M36.7,68.6c0,0.4-0.1,0.5-0.5,0.5h-6.4c-0.4,0-0.5-0.2-0.5-0.5V23.9
		c0-0.4,0.2-0.5,0.5-0.5h6.5c0.3,0,0.5,0.1,0.5,0.5V68.6z"/>
</g>
</svg>
