<svg version="1.1" id="Layer_1" xmlns="http://www.w3.org/2000/svg" xmlns:xlink="http://www.w3.org/1999/xlink" x="0px" y="0px"
	 viewBox="0 0 100 100" style="enable-background:new 0 0 100 100;" xml:space="preserve">
<g>
	<path  d="M0,0v100h100V0H0z M54.4,78c0,9.7-5.7,14.2-14,14.2c-7.5,0-11.9-3.9-14.1-8.6l0,0l0,0c0,0,0,0,0,0l7.7-4.6
		c1.5,2.6,2.8,4.8,6,4.8c3.1,0,5-1.2,5-5.9v-32h9.4V78z M76.6,92.2c-8.7,0-14.4-4.2-17.1-9.6v0l7.7-4.4c2,3.3,4.6,5.7,9.3,5.7
		c3.9,0,6.4-1.9,6.4-4.6c0-3.2-2.6-4.4-6.8-6.2l-2.3-1c-6.8-2.9-11.3-6.5-11.3-14.2c0-7,5.4-12.4,13.8-12.4c6,0,10.3,2.1,13.4,7.5
		l-7.3,4.7c-1.6-2.9-3.4-4-6-4c-2.8,0-4.5,1.7-4.5,4c0,2.8,1.7,4,5.8,5.7l2.3,1c8,3.4,12.5,6.9,12.5,14.8
		C92.2,87.5,85.6,92.2,76.6,92.2z"/>
	<polygon  points="26.3,83.6 26.3,83.6 26.3,83.6 	"/>
</g>
</svg>
