<svg version="1.1" id="Layer_1" xmlns="http://www.w3.org/2000/svg" xmlns:xlink="http://www.w3.org/1999/xlink" x="0px" y="0px"
	 viewBox="0 0 100 100" style="enable-background:new 0 0 100 100;" xml:space="preserve">
<g>
	<g>
		<path  d="M95.8,40.3l4.2,0c0,0-7.8,10.6-8.4,11.4c-0.2,0.3-0.5,0.6-0.7,1c-0.4,0.9-0.8,3-0.8,3l-3.8,0
			c0,0,0.6-2.1,0.6-3.3c0-1-0.5-2-0.8-3c-0.3-1-0.7-3-0.7-3h3.9l0.5,2.2L95.8,40.3"/>
		<path  d="M87.9,42.5c0.8,0.5,1.3,3,1.3,3s-4.1,0.1-6.3,0.1h-1.9l-2.3,10.1h-3.5c0,0,2.2-11,2.7-12.9
			c0.2-0.6,1.2-0.5,2.8-0.5h2.7C85,42.3,87,42,87.9,42.5 M71.4,47.5c0,0,0.1-0.6-0.4-1.4c-0.4-0.6-0.8-0.8-1.9-0.8
			c-3.1-0.1-3,2.2-3,2.2L71.4,47.5z M74.7,44.8c0.5,1.6-0.4,5.4-0.4,5.4s-4.5-0.1-6.9,0c-0.8,0-1.7-0.1-1.9,0.3
			c-0.3,0.5,0.1,1.3,0.5,1.6c0.4,0.4,1.3,0.4,1.6,0.5c2,0.3,6.2,0.1,6.2,0.1l-0.7,3.2c0,0-5.9,0.3-8.9-0.4c-0.6-0.1-1.1-0.4-1.5-0.8
			c-0.1-0.1-0.2-0.3-0.3-0.4c-0.1-0.1-0.3-0.4-0.4-0.7c-0.7-1.8,0.1-5.2,0.8-7.1c0.1-0.2,0.2-0.5,0.3-0.7c0.1-0.3,0.3-0.6,0.4-0.8
			c0.1-0.1,0.2-0.2,0.2-0.3c0.1-0.1,0.2-0.3,0.3-0.4c0.3-0.3,0.6-0.5,1-0.8c1.2-0.9,3.5-1.6,6.1-1.4c1,0.1,2.5,0.5,3.3,1.5
			C74.5,43.9,74.6,44.4,74.7,44.8L74.7,44.8z M58.5,42.2l3.4,0c0,0-1.9,9.1-2.9,13.5h-3.9c-2.8,0-5.2,0.3-6.3-1.6
			c-1-1.9,0-5.1,0.4-7.2c0.3-1.5,1-4.6,1-4.6l3.6,0c0,0-1,4.8-1.4,7.2c-0.1,0.9-0.5,1.7-0.1,2.3c0.3,0.6,0.7,0.7,2,0.7
			c0.4,0,1.8,0,1.8,0L58.5,42.2 M42.4,48.8c0.4-1.3,0.9-2.7,0.8-3.8c-0.1-1.2-1.1-2.4-1.8-2.6c-2-0.7-3.9,0.3-4.6,1.1
			c-1,1-1.3,2.3-1.6,3.9c-0.3,1.2-0.5,2.6,0,3.5c0.8,1.7,3.4,1.3,6.1,1.4C41.7,51.2,42,50,42.4,48.8L42.4,48.8z M47.2,43.7
			c0.4,2.9-1.1,6-2.1,8.7c1.1,0.1,2,0,2,0.1c0.1,0.1-0.7,3.3-1,3.3c-0.8,0-3.6,0-4.8,0c-3.8,0-7.3,0.2-9.1-1.6
			c-0.7-0.8-1.2-2.1-1.4-3c-0.2-1.5,0.1-3.2,0.4-4.6c0.3-1.3,0.7-2.5,1.4-3.5c1.6-2.8,4.4-4.8,9-4.4c0.9,0.1,2.2,0.5,3,1
			c0.1,0,0.3,0.2,0.3,0.2C46,40.6,46.9,42.2,47.2,43.7L47.2,43.7z M30.4,42.3c-0.2,1-0.5,2.2-0.7,3.3h-3.8c0.3-1.1,0.5-2.3,0.8-3.3
			C27.9,42.2,29.1,42.3,30.4,42.3 M25.8,46.5h3.7c-0.5,2.7-1.4,7-2.2,9.9c-0.5,1.9-0.8,3.2-2,4.2c-0.1,0.1-0.2,0-0.3,0.1
			c-0.2,0.2-1.3,0.5-1.9,0.5c-1,0.1-2.1,0-3.3,0c0.3-1.1,0.7-2.5,0.9-3.5c2.9,0.4,3-2.4,3.5-5C24.6,51.2,25.6,47.1,25.8,46.5"/>
		<g>
			<path  d="M17.2,53.4l-0.1,0.2c-1.3,2.6-3.7,4.2-7.1,4.3c-1.6,0-3.1-0.4-4.1-0.8c-2.1-1-3.9-2.7-4.9-4.6
				c-1.4-2.7-1.7-6.5,1.3-9.3c0,0-0.4,0.6-0.3,0.6L1.9,44c-2.1,6.6,4.4,12.2,10.7,11.6C14.1,55.4,16,54.6,17.2,53.4"/>
			<path  d="M13.4,50.7c1.6,0,3.2-0.7,4.2-1.8c-0.9,2.2-3.3,3.6-6.7,3.1c-2.8-0.4-5.4-3.2-5.7-6c-0.2-2,0.5-3.3,1.7-4.8
				c-0.4,0.8-0.6,1.4-0.6,1.8C5.9,47.5,9.8,50.7,13.4,50.7"/>
			<path  d="M17.4,45.2c-0.2,0.6-1.7,1.6-2.3,1.8c-2.5,0.5-4.1-0.6-4.9-2c-0.1-0.2-0.4-0.7-0.4-0.9
				c-0.3-1.1-0.2-2.8,0.8-3.6c-0.3,0.8-0.3,1.8-0.2,2.4c0.1,0.4,0.4,1,0.7,1.4c0.5,0.7,0.8,0.9,1.5,1.3c0.3,0.2,0.6,0.3,0.8,0.4
				C14,46.2,15.3,46.6,17.4,45.2"/>
		</g>
	</g>
</g>
</svg>
