<svg version="1.1" id="Layer_1" xmlns="http://www.w3.org/2000/svg" xmlns:xlink="http://www.w3.org/1999/xlink" x="0px" y="0px"
	 viewBox="0 0 100 100" style="enable-background:new 0 0 100 100;" xml:space="preserve">
<g>
	<path   d="M97.1,52.1C97.1,52,97.1,52,97.1,52.1c1.1-0.5,1.9-1.4,1.9-2.6c0-2.3-2.2-2.9-3.7-2.9c-1.3,0-2.3,0-3.6,0
		c-1.4,0-1.9-0.1-2.1-0.1h0c-0.1,0.1-0.4,0.7-0.3,0.8c0.4,0.1,0.9,0.1,1.2,0.2c0.4,0.1,0.6,0.3,0.6,0.8c0,0.7,0,2.2,0,4.4
		c0,1.6,0,3.8,0,4.5c-0.1,0.7-0.1,0.9-0.6,1c-0.3,0.1-0.6,0.1-0.9,0.1c-0.1,0.1-0.4,0.8-0.3,0.8c1.4,0,3.8,0.1,4.8,0.1
		c1.2,0,2.4-0.1,3.4-0.6c1.6-0.7,2.7-1.8,2.7-3.5C100,53.4,98.7,52.4,97.1,52.1z M93,47.9c0-0.1,0.1-0.3,0.2-0.3
		c0.3-0.1,0.6-0.1,0.8,0c1.8,0,3,0.7,3,2.4c0,0.8-0.3,1.5-1,1.8c-0.3,0.1-0.7,0.2-1.5,0.2c-0.6,0-1.2,0-1.5,0
		c-0.1,0-0.1-0.1-0.1-0.1C93,50.5,93,48.6,93,47.9z M95.2,58.3c-0.5,0-1.2,0-1.6-0.2c-0.3-0.1-0.6-0.6-0.6-1c-0.1-0.8,0-2.8,0-4.1
		c0-0.1,0.1-0.1,0.1-0.1c0.2,0,0.9,0,1,0c2.4,0,3.7,1,3.7,2.8C97.9,57.5,96.6,58.3,95.2,58.3z"/>
	<path  d="M85.8,48c-1.1-0.9-2.6-1.4-4.4-1.4c-2.1,0-3,0.1-4.1,0.1c-0.6,0-1.9-0.1-2.3-0.1l0,0c-0.1,0.1-0.4,0.7-0.3,0.8
		c0.5,0.1,0.9,0.1,1.1,0.2c0.5,0.1,0.8,0.3,0.9,0.9c0,0.8,0,3.1,0,4.3c0,1.7,0,3.2,0,4.4c-0.1,0.7-0.1,0.9-0.5,1
		c-0.2,0.1-0.4,0.1-0.8,0.2c-0.1,0-0.4,0.6-0.3,0.8h0c1.8,0,3.9,0.1,5.1,0.1c2.3,0,3.9-0.5,5.2-1.5c1.2-0.9,2.5-2.5,2.5-5.2
		C87.8,50.7,87.1,49.1,85.8,48z M84,57.2c-0.9,0.8-1.9,1-2.9,1c-0.8,0-1.6-0.1-2-0.5h0c-0.3-0.2-0.4-0.6-0.4-0.9c0-0.3,0-2.6,0-4.3
		c0-1.6,0-4.4,0-4.8c0-0.1,0.1-0.3,0.2-0.3c0.2-0.1,0.6-0.1,1-0.1c1.3,0,2.5,0.2,3.4,0.8c1.6,1,2.4,2.6,2.4,4.7
		C85.7,55,85,56.4,84,57.2z"/>
	<path  d="M37.3,50.8c-0.9,0-1.9,0.3-2.8,0.8c-1.2,0.8-1.8,1.9-1.8,3.4c0,2.1,1.1,4.4,4.2,4.4c0.9,0,1.9-0.4,2.5-0.8
		c1.2-0.8,1.9-2.1,1.9-3.7C41.3,52.5,39.7,50.8,37.3,50.8z M38.7,58.1c-0.3,0.3-0.7,0.4-1.2,0.4c-1.7,0-2.9-1.7-2.9-4
		c0-1.3,0.4-2.1,1.1-2.6c0.3-0.2,0.6-0.3,1-0.3c1.7,0,2.9,1.6,2.9,3.9C39.5,56.8,39.3,57.7,38.7,58.1z"/>
	<path  d="M31.5,58.6c-0.5-0.1-0.8-0.1-1-0.3c-0.2-0.1-0.3-0.3-0.3-0.4c0-0.4,0-1,0-1.6c0-0.7,0-1.5,0-2.1
		c0-2.1-1-3.4-2.7-3.4c-0.7,0-1.8,0.5-2.8,1.3c0,0-0.1,0.1-0.1,0.1c-0.1,0-0.1,0-0.1-0.1c-0.5-0.9-1.2-1.3-2.1-1.3
		c-0.5,0-1.6,0.3-2.7,1.2c0,0-0.1,0-0.1,0c-0.1,0-0.1-0.1-0.1-0.1c0-0.2,0-0.5,0-0.7l0-0.2c0-0.1-0.1-0.3-0.1-0.3
		c-0.6,0.3-2.2,0.6-2.8,0.7c-0.2,0-0.3,0.2-0.3,0.3c0,0.1,0.1,0.2,0.3,0.3c0.5,0.1,0.8,0.3,1.1,0.5c0.2,0.1,0.2,0.3,0.2,0.5v0
		c0,1.4,0,3.5,0,4.6c0,0.5-0.2,0.6-0.5,0.7c-0.2,0.1-0.4,0.1-0.8,0.2c0,0-0.1,0.1-0.1,0.3c0,0.2,0,0.4,0.1,0.4h0c0.2,0,0.4,0,0.7,0
		c0.4,0,0.8,0,1.4,0c0.5,0,1,0,1.4,0c0.3,0,0.5,0,0.6,0c0.1-0.1,0.1-0.6,0.1-0.7l-0.3-0.1c-0.2,0-0.3-0.1-0.4-0.1
		c-0.4-0.1-0.5-0.3-0.5-0.6c0-0.7,0-2.3,0-3.6v-1.1c0-0.2,0.1-0.3,0.2-0.4c0.6-0.4,1.3-0.7,1.8-0.7c1,0,1.6,0.5,1.8,1.6
		c0.1,0.6,0.1,3.2,0,4.1c0,0.4-0.1,0.6-0.4,0.6c-0.2,0-0.4,0.1-0.6,0.1c-0.1,0-0.2,0-0.3,0c0,0-0.1,0.2-0.1,0.3c0,0.2,0,0.3,0.1,0.4
		c0.2,0,0.5,0,0.8,0c0.4,0,0.9,0,1.1,0c0.9,0,1.6,0,2.2,0c0,0,0.1-0.1,0.1-0.2c0.1-0.2,0.1-0.4,0-0.5c-0.3-0.1-0.4-0.1-0.6-0.1
		c-0.1,0-0.2,0-0.3-0.1c-0.2-0.1-0.4-0.2-0.4-0.6c0-0.6,0-1.3,0-2.1v-1.2c0-0.7,0-1.1-0.1-1.5v0c0-0.1,0-0.1,0.1-0.2
		c0.7-0.5,1.4-0.7,1.8-0.7c1.2,0,1.7,0.8,1.8,1.6c0.1,0.7,0,3.6,0,4c0,0.5-0.1,0.6-0.5,0.7c-0.2,0.1-0.4,0.1-0.7,0.2
		c-0.1,0.1,0,0.5,0,0.7c0.6,0,1.1-0.1,2.3-0.1c0.5,0,0.9,0,1.4,0c0.2,0,0.3,0,0.5,0C31.4,59.2,31.5,58.7,31.5,58.6L31.5,58.6z"/>
	<path  d="M62.2,52.5L62.2,52.5c0.4,0,0.7-0.1,0.9-0.3c0.2-0.3,0.3-0.6,0.2-0.8c0-0.2-0.1-0.3-0.1-0.4
		c-0.3,0.3-0.6,0.5-1.3,0.5c-0.5,0-0.8-0.1-1.2-0.2c-0.7-0.2-1.1-0.4-2-0.4h-0.1c-0.8,0-2.1,0.5-2.6,0.9C55.4,52.2,55,53.1,55,54
		c0,1.4,0.6,2.3,1.9,2.8c0,0,0.1,0.1,0.1,0.1c0,0,0,0.1,0,0.1c-0.2,0.2-0.5,0.4-0.8,0.5c-0.2,0.1-0.4,0.2-0.5,0.3
		c-0.2,0.1-0.1,0.2-0.1,0.3v0c0.1,0.3,0.3,0.8,1.2,1.1c0,0,0.1,0.1,0.1,0.1c0,0,0,0.1-0.1,0.1c-1,0.7-1.5,1.1-1.7,1.3
		c-0.3,0.4-0.4,0.8-0.4,0.9c0,0.5,0.3,1.3,1,1.8c0.7,0.5,1.5,0.8,2.6,0.8c0.8,0,1.6-0.2,2.4-0.5c1.6-0.8,2.5-2,2.5-3.4
		c0-0.9-0.5-1.6-1.4-1.9c-0.6-0.2-1.9-0.3-2.9-0.4c-0.2,0-0.3,0-0.5,0c-0.8-0.1-0.9-0.4-0.9-0.6c0-0.3,0.4-0.5,0.5-0.5h0
		c0,0,0.1,0,0.2,0c0.2,0,0.2,0,0.3,0c0.8-0.1,1.5-0.4,2.1-0.8c0.6-0.5,1.2-1.1,1.2-2.6c0-0.1-0.1-0.6-0.1-0.8l0,0c0-0.1,0-0.1,0-0.1
		l0.1,0C61.7,52.4,61.9,52.5,62.2,52.5z M58.1,59.6L58.1,59.6c1.1,0,2,0.1,2.5,0.3c0.7,0.3,1,0.7,1,1.4c0,1-0.8,2-2.7,2
		c-0.9,0-1.6-0.2-2.2-0.7c-0.4-0.4-0.6-0.8-0.6-1.3c0-0.6,0.3-1,1.1-1.5C57.5,59.7,57.7,59.6,58.1,59.6z M59.6,55.6
		c-0.2,0.3-0.7,0.4-0.9,0.4c-1.5,0-2-1.4-2-2.5c0-1.2,0.6-1.9,1.6-1.9v0c1.2,0,2,0.9,2,2.4C60.2,54.7,59.9,55.3,59.6,55.6z"/>
	<path  d="M52,58.2c-0.1,0-0.1-0.2-0.1-0.3c0-0.6,0-2.4,0-3.6c0-1-0.2-1.8-0.6-2.4c-0.5-0.7-1.2-1.1-2.1-1.1
		c-0.8,0-1.9,0.5-2.7,1.3c0,0-0.2,0.1-0.1-0.1c0-0.2,0-0.6,0.1-0.9c0-0.3-0.1-0.4-0.1-0.4c-0.6,0.3-2.2,0.7-2.8,0.7
		c-0.4,0.1-0.5,0.5-0.1,0.6h0c0.5,0.1,0.8,0.3,1.1,0.5c0.2,0.1,0.2,0.3,0.2,0.5c0,1.4,0,3.4,0,4.6c0,0.5-0.1,0.6-0.5,0.7l0,0
		c-0.3,0.1-0.5,0.1-0.8,0.1c-0.1,0.1-0.1,0.7,0,0.8c0.2,0,1.2-0.1,2.1-0.1c1.2,0,1.8,0.1,2.1,0.1c0.1-0.1,0.2-0.7,0.1-0.8
		c-0.3,0-0.6-0.1-0.8-0.1c-0.3-0.1-0.4-0.2-0.4-0.6c0-1,0-3,0-4.3c0-0.4,0.1-0.6,0.2-0.7c0.4-0.4,1.1-0.6,1.7-0.6
		c0.6,0,1,0.2,1.2,0.4c0.4,0.3,0.5,0.8,0.6,1.1c0.1,0.8,0.1,2.3,0.1,3.6c0,0.7-0.1,0.9-0.3,1c-0.1,0.1-0.5,0.1-0.8,0.2
		c-0.1,0.1-0.1,0.7,0,0.8c0.5,0,1.1-0.1,2-0.1c1.1,0,1.8,0.1,2.1,0.1c0.1-0.1,0.1-0.6,0.1-0.8C52.7,58.4,52.4,58.3,52,58.2z"/>
	<path  d="M69.2,50.8c-0.9,0-1.9,0.3-2.8,0.8c-1.2,0.8-1.8,1.9-1.8,3.4c0,2.1,1.1,4.4,4.2,4.4c0.8,0,1.9-0.4,2.5-0.8
		c1.2-0.8,1.9-2.1,1.9-3.7C73.2,52.5,71.5,50.8,69.2,50.8z M70.6,58.1c-0.3,0.3-0.7,0.4-1.2,0.4c-1.7,0-2.9-1.7-2.9-4
		c0-1.3,0.4-2.1,1.1-2.6c0.3-0.2,0.6-0.3,1-0.3l0,0c1.7,0,2.9,1.6,2.9,3.9C71.4,56.8,71.1,57.7,70.6,58.1z"/>
	<path  d="M6.9,37.4c-0.4-0.6-0.8-1.6-0.8-1.6l0,0c0-0.1,0-0.1,0-0.1c0,0.6-0.1,0.8-0.6,1.4C4.7,37.8,0.4,41.4,0,48.7
		c-0.3,6.8,4.9,10.9,5.6,11.4c0.5,1.2,0.5,3.2,0.5,3.2l0.7,0.3c0,0-0.1-2,0.1-2.9c0.1-0.3,0.2-0.6,0.4-0.8c0.1-0.1,0.5-0.3,0.9-0.7
		c0,0,0,0,0,0c0,0,0,0,0,0c1.8-1.6,5.1-5.7,4-12.3C10.8,40.3,7.3,38.2,6.9,37.4z"/>
</g>
</svg>
