<svg version="1.1" width="20px" id="Layer_1" xmlns="http://www.w3.org/2000/svg" xmlns:xlink="http://www.w3.org/1999/xlink" x="0px" y="0px"
	 viewBox="0 0 100 100" style="enable-background:new 0 0 100 100;" xml:space="preserve">
<g>
	<g>
		<path  d="M0,71.3h3.3V58.3l5.2,11.4c0.6,1.4,1.4,1.9,3,1.9c1.6,0,2.4-0.5,3-1.9l5.1-11.4v13.1H23V58.3
			c0-1.3-0.5-1.9-1.6-2.2c-2.5-0.8-4.2-0.1-5,1.6l-5.1,11.3L6.5,57.7c-0.7-1.7-2.4-2.4-5-1.6C0.5,56.4,0,57,0,58.3L0,71.3L0,71.3
			L0,71.3z M25.7,60.7H29v7.2c0,0.4,0.1,1.3,1.9,1.3c0.9,0,7.2,0,7.2,0v-8.6h3.3v11.8c0,2.9-3.6,3.5-5.3,3.6H25.8v-2.2h10.5
			c2.1-0.2,1.9-1.3,1.9-1.7v-0.9h-7c-3.3,0-5.4-1.5-5.4-3.1C25.7,68,25.8,60.8,25.7,60.7L25.7,60.7z M97.1,52.4
			c-2-0.1-3.6,0.2-4.9,0.7c-0.4,0.2-1,0.2-1,0.6c0.2,0.2,0.2,0.5,0.4,0.8c0.3,0.5,0.8,1.2,1.3,1.5c0.5,0.4,1.1,0.8,1.6,1.2
			c1,0.6,2.1,1,3.1,1.6c0.6,0.4,1.1,0.8,1.7,1.2c0.3,0.2,0.5,0.5,0.8,0.7v-0.1c-0.2-0.2-0.2-0.6-0.4-0.8c-0.3-0.3-0.5-0.5-0.8-0.7
			c-0.7-1-1.7-1.9-2.6-2.6c-0.8-0.6-2.6-1.3-2.9-2.3l-0.1-0.1c0.6-0.1,1.2-0.3,1.8-0.4c0.9-0.2,1.7-0.2,2.5-0.4
			c0.4-0.1,0.8-0.2,1.2-0.4v-0.2c-0.5-0.5-0.8-1.1-1.3-1.5c-1.3-1.1-2.7-2.2-4.2-3.1c-0.8-0.5-1.8-0.8-2.6-1.3
			c-0.3-0.2-0.8-0.2-1-0.5c-0.5-0.6-0.7-1.3-1-2c-0.7-1.4-1.4-2.9-2.1-4.4c-0.5-1-0.7-2-1.3-2.9c-2.6-4.3-5.5-6.9-9.8-9.5
			c-0.9-0.5-2.1-0.8-3.2-1c-0.6,0-1.3-0.1-1.9-0.1c-0.4-0.2-0.8-0.7-1.2-0.9c-1.4-0.9-5.2-2.9-6.2-0.3c-0.7,1.7,1,3.3,1.6,4.1
			c0.4,0.6,1,1.2,1.3,1.9c0.2,0.4,0.2,0.9,0.4,1.3c0.4,1.1,0.8,2.4,1.3,3.4c0.3,0.5,0.6,1.1,0.9,1.6c0.2,0.3,0.6,0.4,0.6,0.9
			c-0.4,0.5-0.4,1.3-0.6,1.9c-0.9,2.9-0.6,6.4,0.7,8.5c0.4,0.6,1.4,2,2.7,1.5c1.1-0.5,0.9-1.9,1.2-3.2c0.1-0.3,0-0.5,0.2-0.7v0.1
			c0.4,0.7,0.7,1.4,1,2.1c0.8,1.2,2.2,2.5,3.3,3.4c0.6,0.5,1.1,1.2,1.9,1.5v-0.1h-0.1c-0.2-0.2-0.4-0.3-0.6-0.5
			c-0.5-0.5-1-1-1.3-1.5c-1.1-1.4-2-3-2.8-4.6c-0.4-0.8-0.8-1.7-1.1-2.4c-0.2-0.3-0.2-0.8-0.4-0.9c-0.4,0.6-0.9,1-1.2,1.7
			c-0.5,1.1-0.5,2.4-0.7,3.8c-0.1,0-0.1,0-0.1,0.1c-0.8-0.2-1.1-1-1.4-1.8c-0.8-1.8-0.9-4.7-0.2-6.8c0.2-0.5,0.9-2.2,0.6-2.7
			c-0.2-0.5-0.7-0.8-0.9-1.1c-0.3-0.5-0.7-1.1-0.9-1.6c-0.6-1.4-0.9-3-1.6-4.4c-0.3-0.7-0.8-1.3-1.3-2c-0.5-0.7-1-1.2-1.4-2
			c-0.1-0.3-0.3-0.7-0.1-1c0.1-0.2,0.2-0.3,0.4-0.3c0.3-0.3,1.3,0.1,1.6,0.2c0.9,0.4,1.7,0.7,2.5,1.3c0.4,0.3,0.7,0.7,1.2,0.9h0.5
			c0.8,0.2,1.7,0.1,2.5,0.3c1.3,0.4,2.6,1.1,3.7,1.8c3.3,2.1,6.1,5.1,7.9,8.7c0.3,0.6,0.4,1.1,0.7,1.7c0.5,1.2,1.2,2.5,1.7,3.7
			c0.5,1.2,1,2.4,1.8,3.4c0.4,0.5,1.9,0.8,2.6,1.1c0.5,0.2,1.3,0.4,1.8,0.7c0.9,0.5,1.7,1.1,2.5,1.7C95.7,51.2,97,51.9,97.1,52.4
			L97.1,52.4z"/>
		<path  d="M71.2,30.3c-0.4,0-0.7,0.1-1,0.1v0.1h0.1c0.2,0.4,0.6,0.7,0.8,1c0.2,0.4,0.4,0.8,0.6,1.2l0.1-0.1
			c0.4-0.3,0.5-0.7,0.5-1.3c-0.2-0.2-0.2-0.4-0.3-0.5C71.7,30.6,71.4,30.5,71.2,30.3L71.2,30.3z"/>
		<path  d="M44,71.3h9.5c1.1,0,2.2-0.2,3-0.6c1.4-0.7,2.1-1.5,2.1-2.7v-2.4c0-0.9-0.8-1.8-2.4-2.4
			c-0.8-0.3-1.8-0.5-2.8-0.5h-4c-1.3,0-2-0.4-2.2-1.3c0-0.1,0-0.2,0-0.3v-1.5c0-0.1,0-0.2,0-0.3c0.2-0.7,0.5-0.9,1.7-1h9.8v-2.2
			h-9.3c-1.3,0-2.1,0.1-2.7,0.3c-2,0.6-2.8,1.6-2.8,3.3v1.9c0,1.5,1.7,2.8,4.5,3.1c0.3,0,0.6,0,1,0H53c0.1,0,0.3,0,0.4,0
			c1,0.1,1.5,0.3,1.8,0.7c0.2,0.2,0.3,0.4,0.3,0.6v1.9c0,0.2-0.2,0.5-0.5,0.8c-0.3,0.3-0.8,0.4-1.4,0.5c-0.1,0-0.2,0-0.3,0H44V71.3
			L44,71.3z M79.4,67.5c0,2.3,1.7,3.5,5.1,3.8c0.3,0,0.6,0.1,1,0.1h8.6v-2.2h-8.7c-1.9,0-2.7-0.5-2.7-1.7V56.1h-3.3L79.4,67.5
			L79.4,67.5L79.4,67.5z M60.9,67.6v-7.9c0-2,1.4-3.2,4.2-3.6c0.3,0,0.6-0.1,0.9-0.1h6.3c0.3,0,0.6,0,0.9,0.1
			c2.8,0.4,4.2,1.6,4.2,3.6v7.9c0,1.6-0.6,2.5-2,3.1l3.2,2.9h-3.8l-2.6-2.4l-2.7,0.2H66c-0.6,0-1.2-0.1-1.9-0.3
			C61.9,70.6,60.9,69.4,60.9,67.6L60.9,67.6z M64.5,67.4c0,0.1,0.1,0.2,0.1,0.3c0.2,0.9,1,1.4,2.4,1.4h3l-2.7-2.5H71l2.4,2.2
			c0.5-0.3,0.7-0.6,0.8-1.1c0-0.1,0-0.2,0-0.3v-7.5c0-0.1,0-0.2,0-0.3c-0.2-0.9-1-1.3-2.3-1.3h-5c-1.5,0-2.4,0.6-2.4,1.6L64.5,67.4
			L64.5,67.4z M95.7,71.4h0.5v-1.9h0.6v-0.4H95v0.4h0.7L95.7,71.4L95.7,71.4z M99.3,71.4h0.5v-2.2h-0.7l-0.6,1.5l-0.6-1.5h-0.7v2.2
			h0.4v-1.7h0l0.6,1.7h0.3l0.6-1.7L99.3,71.4L99.3,71.4L99.3,71.4z"/>
	</g>
</g>
</svg>
