<svg version="1.1" width="20px" id="Layer_1" xmlns="http://www.w3.org/2000/svg" xmlns:xlink="http://www.w3.org/1999/xlink" x="0px" y="0px"
	 viewBox="0 0 100 100" style="enable-background:new 0 0 100 100;" xml:space="preserve">
<g>
	<g>
		<path  d="M92,45.9c-0.2,0-0.5,0.1-0.7,0.2l-6.6,3.8c-0.4,0.2-0.7,0.7-0.7,1.2v7.6c0,0.5,0.3,1,0.7,1.2l1.7,1
			c0.8,0.4,1.2,0.4,1.5,0.4c1.2,0,2-0.8,2-2.1v-7.5c0-0.1-0.1-0.2-0.2-0.2h-0.8c-0.1,0-0.2,0.1-0.2,0.2v7.5c0,0.6-0.6,1.2-1.6,0.7
			l-1.8-1.1c-0.1,0-0.1-0.1-0.1-0.2v-7.6c0-0.1,0-0.1,0.1-0.2l6.6-3.8c0.1,0,0.1,0,0.2,0l6.6,3.8c0.1,0,0.1,0.1,0.1,0.2v7.6
			c0,0.1,0,0.1-0.1,0.2l-6.6,3.8c-0.1,0-0.1,0-0.2,0l-1.7-1c-0.1,0-0.1,0-0.2,0c-0.5,0.3-0.6,0.3-1,0.5c-0.1,0-0.3,0.1,0.1,0.3
			l2.2,1.3c0.2,0.1,0.4,0.2,0.7,0.2c0.2,0,0.5-0.1,0.7-0.2l6.6-3.8c0.4-0.2,0.7-0.7,0.7-1.2v-7.6c0-0.5-0.3-1-0.7-1.2l-6.6-3.8
			C92.5,46,92.2,45.9,92,45.9L92,45.9z"/>
		<path  d="M93.8,51.4c-1.9,0-3,0.8-3,2.1c0,1.4,1.1,1.8,2.9,2c2.2,0.2,2.3,0.5,2.3,1c0,0.7-0.6,1.1-2,1.1
			c-1.8,0-2.1-0.4-2.3-1.3c0-0.1-0.1-0.2-0.2-0.2h-0.9c-0.1,0-0.2,0.1-0.2,0.2c0,1.1,0.6,2.4,3.5,2.4c2.1,0,3.3-0.8,3.3-2.3
			c0-1.4-1-1.8-3-2.1c-2.1-0.3-2.3-0.4-2.3-0.9c0-0.4,0.2-0.9,1.7-0.9c1.4,0,1.9,0.3,2.1,1.2c0,0.1,0.1,0.2,0.2,0.2h0.9
			c0.1,0,0.1,0,0.1-0.1c0,0,0.1-0.1,0.1-0.1C96.9,52.1,95.9,51.4,93.8,51.4L93.8,51.4z"/>
	</g>
	<path  d="M53,35.9c-0.1,0-0.1,0-0.2,0.1c-0.1,0.1-0.2,0.2-0.2,0.4v10.8c0,0.1,0,0.2-0.1,0.3c-0.1,0.1-0.2,0.1-0.3,0
		l-1.8-1c-0.3-0.2-0.6-0.2-0.8,0l-7,4.1c-0.3,0.2-0.4,0.4-0.4,0.7v8.1c0,0.3,0.2,0.6,0.4,0.7l7,4.1c0.3,0.2,0.6,0.2,0.8,0l7-4.1
		c0.3-0.2,0.4-0.4,0.4-0.7V39c0-0.3-0.2-0.6-0.4-0.7l-4.2-2.3C53.2,35.9,53.1,35.9,53,35.9L53,35.9z M7.8,46c-0.1,0-0.3,0-0.4,0.1
		l-7,4.1C0.2,50.3,0,50.6,0,50.9l0,10.9c0,0.2,0.1,0.3,0.2,0.4c0.1,0.1,0.3,0.1,0.4,0l4.2-2.4c0.3-0.2,0.4-0.4,0.4-0.7v-5.1
		c0-0.3,0.2-0.6,0.4-0.7l1.8-1c0.1-0.1,0.3-0.1,0.4-0.1c0.1,0,0.3,0,0.4,0.1l1.8,1c0.3,0.2,0.4,0.4,0.4,0.7V59
		c0,0.3,0.2,0.6,0.4,0.7l4.2,2.4c0.1,0.1,0.3,0.1,0.4,0c0.1-0.1,0.2-0.2,0.2-0.4l0-10.9c0-0.3-0.2-0.6-0.4-0.7l-7-4.1
		C8.2,46,8,46,7.8,46L7.8,46z M70.9,46.1c-0.1,0-0.3,0-0.4,0.1l-7,4.1c-0.3,0.2-0.4,0.4-0.4,0.7v8.1c0,0.3,0.2,0.6,0.4,0.7l7,4
		c0.3,0.1,0.6,0.2,0.8,0l4.2-2.4c0.1-0.1,0.2-0.2,0.2-0.4c0-0.2-0.1-0.3-0.2-0.4l-7.1-4.1c-0.1-0.1-0.2-0.2-0.2-0.4v-2.5
		c0-0.2,0.1-0.3,0.2-0.4l2.2-1.3c0.1-0.1,0.3-0.1,0.4,0l2.2,1.3c0.1,0.1,0.2,0.2,0.2,0.4v2c0,0.2,0.1,0.3,0.2,0.4
		c0.1,0.1,0.3,0.1,0.4,0l4.2-2.4c0.3-0.2,0.4-0.4,0.4-0.7v-2c0-0.3-0.2-0.6-0.4-0.7l-7-4.1C71.2,46.1,71.1,46.1,70.9,46.1L70.9,46.1
		z M49.9,52.2c0,0,0.1,0,0.1,0l2.4,1.4c0.1,0,0.1,0.1,0.1,0.2v2.8c0,0.1,0,0.1-0.1,0.2l-2.4,1.4c-0.1,0-0.1,0-0.2,0l-2.4-1.4
		c-0.1,0-0.1-0.1-0.1-0.2v-2.8c0-0.1,0-0.1,0.1-0.2L49.9,52.2C49.9,52.2,49.9,52.2,49.9,52.2L49.9,52.2L49.9,52.2z"/>
	<path  d="M28.9,46.1c-0.1,0-0.3,0-0.4,0.1l-7,4c-0.3,0.2-0.4,0.4-0.4,0.7v8.1c0,0.3,0.2,0.6,0.4,0.7l7,4.1
		c0.3,0.2,0.6,0.2,0.8,0l7-4.1c0.3-0.2,0.4-0.4,0.4-0.7V51c0-0.3-0.2-0.6-0.4-0.7l-7-4C29.2,46.1,29.1,46.1,28.9,46.1L28.9,46.1z
		 M70.9,53.3C70.9,53.3,70.9,53.3,70.9,53.3l-1.4,0.8c-0.1,0-0.1,0.1-0.1,0.1v1.5c0,0.1,0,0.1,0.1,0.1l1.4,0.8c0.1,0,0.1,0,0.2,0
		l1.4-0.8c0.1,0,0.1-0.1,0.1-0.1v-1.5c0-0.1,0-0.1-0.1-0.1L70.9,53.3C71,53.3,71,53.3,70.9,53.3L70.9,53.3z"/>
</g>
</svg>
