<svg version="1.1" width="20px" id="Layer_1" xmlns="http://www.w3.org/2000/svg" xmlns:xlink="http://www.w3.org/1999/xlink" x="0px" y="0px"
	 viewBox="0 0 100 100" style="enable-background:new 0 0 100 100;" xml:space="preserve">
<g>
	<path  d="M4.2,5.4h91.7v89.2H4.2V5.4z M0,98.8h100V1.2H0V98.8z M60,42.4c0-0.5,0-1.7-0.2-4c0-0.3,0-0.4,0.3-0.5
		c2.5-1,8.5-2.9,15.2-2.9c0.3,0,0.5,0.1,0.5,0.4v6c0,0.3-0.1,0.4-0.5,0.4c-2.6-0.1-6.4,0.2-7.9,0.8v26.3c0,0.3-0.1,0.5-0.5,0.5h-6.5
		c-0.3,0-0.5-0.1-0.5-0.5L60,42.4L60,42.4z M33.3,46.2c1,0.1,1.7,0.1,3.4,0.1c4.9,0,9.5-1.7,9.5-8.3c0-5.3-3.3-8-8.8-8
		c-1.7,0-3.2,0.1-4,0.1V46.2L33.3,46.2z M26,24.1c0-0.3,0.1-0.5,0.4-0.5c2.7-0.1,6.6-0.2,10.7-0.2c11.5,0,16.6,6.3,16.6,14.5
		C53.7,48.4,46,53,36.6,53c-1.6,0-2.1-0.1-3.3-0.1v16c0,0.3-0.1,0.5-0.5,0.5h-6.4c-0.3,0-0.5-0.1-0.5-0.5L26,24.1L26,24.1L26,24.1z"
		/>
</g>
</svg>
