<svg version="1.1" width="20px" id="Layer_1" xmlns="http://www.w3.org/2000/svg" xmlns:xlink="http://www.w3.org/1999/xlink" x="0px" y="0px"
	 viewBox="0 0 100 100" style="enable-background:new 0 0 100 100;" xml:space="preserve">
<g>
	<path  d="M0.1,1.9v97.5h100V1.9H0.1z M4.3,6H96v89.2H4.3V6z"/>
	<path  d="M72.8,42.8c-0.6-0.3-1.4-0.4-2.4-0.4c-5.2,0-8.7,4-8.7,10.8c0,7.7,3.6,10.8,8.3,10.8c1,0,2.1-0.1,2.9-0.5
		L72.8,42.8L72.8,42.8z M54.1,53.5c0-9.7,6.2-17.3,16.5-17.3c0.9,0,1.3,0,2.2,0.1V25.4c0-0.2,0.2-0.4,0.4-0.4h6.7
		c0.3,0,0.4,0.1,0.4,0.3v38.1c0,1.1,0,2.5,0.2,4.1c0,0.3,0,0.3-0.2,0.5c-3.5,1.7-7.2,2.4-10.7,2.4C60.5,70.4,54.1,64.8,54.1,53.5
		L54.1,53.5z M39.9,46.7l11.7,22.6c0.2,0.3,0.1,0.7-0.2,0.7H44c-0.5,0-0.7-0.1-0.9-0.5C40.5,64,37.8,58.3,35,52.4h-0.1
		C32.4,57.9,29.7,64,27,69.5c-0.2,0.3-0.4,0.5-0.8,0.5h-6.9c-0.4,0-0.5-0.3-0.2-0.6l11.4-22l-11-21.8c-0.2-0.3,0-0.6,0.3-0.6h7.2
		c0.4,0,0.6,0.1,0.8,0.5c2.6,5.5,5.3,11,7.8,16.6h0.1c2.4-5.5,5.1-11,7.6-16.5c0.2-0.3,0.3-0.5,0.8-0.5h6.7c0.3,0,0.5,0.2,0.2,0.6
		L39.9,46.7L39.9,46.7z"/>
</g>
</svg>
