<svg version="1.1" id="Layer_1" xmlns="http://www.w3.org/2000/svg" xmlns:xlink="http://www.w3.org/1999/xlink" x="0px" y="0px"
	 viewBox="0 0 2422.7 2422.9" style="enable-background:new 0 0 2422.7 2422.9;" xml:space="preserve">
<g>
	<path  d="M2422.3,1178.6C2405.3,528,1873.9,1.3,1211.9,0C526.1-0.5-30.2,572.2,1.3,1267.6
		c28.3,627.5,539.6,1140.4,1182.3,1155C1871,2438.5,2440.3,1877.4,2422.3,1178.6z M2023.6,1649.3c-16.2,33.6-42.6,57.5-78.9,65.4
		c-66.2,14.8-125,44.8-181.1,81.6c-92.4,61.4-193.6,107-299.5,141.9c-7.1,2.4-13.8,5.3-19.9,10.1c-28.3,21.2-61.4,29.9-95.9,34.7
		c-104.6,14.6-209.7,20.9-315.1,25.4c-43.4,1.9-86.6-4-125-27c-10.3-6.4-19.3-18.3-29.9-20.1c-10.3-1.6-22,7.9-33.4,10.6
		c-67.5,15.1-130.8,2.4-189.3-33.1c-34.7-20.9-51.1-54-49.3-94.8c0.5-10.9-2.6-18.8-9-27.5c-28.1-39.2-41.8-83.9-49.5-131.1
		c-15.1-92.9,18-169.7,79.4-237c5.8-6.4,7.9-12.7,7.9-21.2c0-92.9,17.7-181.4,65.4-262.4c26.7-45.3,61.2-84.2,99.6-119.4
		c7.4-6.6,8.2-11.1,3.2-19.6c-16.2-27-26.2-56.7-35-86.9c0,0-0.1,0-0.1-0.1c0,0.1,0.1,0.1,0.1,0.2c-1.1,0.8-1.1,6.1-2.6,2.4
		c-2.9-7.1-5-15.1-5-22.8c-0.5-25.4-2.9-51.1,4.2-76.3c0.3,1.9,0.5,3.8,1,5.5c7.9-30.5,19.2-60,33.7-88.1
		c14.3-27.3,34.7-47.7,64.3-57.5c21.2-6.9,38.9-19.1,54.8-35.2c56.1-56.4,124.2-89.2,203.4-98c13-1.3,19.6-6.1,24.6-18.3
		c11.9-28.9,26.7-56.7,46.3-81.3c25.9-32.6,56.9-56.9,101.7-54.3c28.3,1.6,51.9,13.5,69.1,36.3c19.3,25.4,33.6,53.8,47.4,82.4
		c4.5,9.3,8.2,12.7,19.6,10.3c41.8-9.3,75.7,9,93.7,47.9c20.9,45.5,31,93.7,36,143c10.6,102.5,3.7,203.4-31,301.6
		c-20.4,57.7-49,111.2-83.9,161.5c-4.2,6.1-5.3,10.1,0.5,16.4c93.5,104.9,139.3,227.2,134,368.1v10.1c6.6,0.3,11.7-3.7,16.7-6.4
		c41.3-21.2,78.9-48.2,120.5-69.1c58.5-29.4,119.7-50,186.1-49.5C2001.6,1468.5,2064.7,1564.1,2023.6,1649.3z"/>
	<path  d="M762.8,904.3c0.3,0.5,0.5,0.9,0.7,1.4c-0.1-0.5-0.2-0.9-0.4-1.4v-34.7c0.5-1,0.8-2.1,1-3.2
		c-0.3,1.1-0.7,2.2-1.3,3.2c0.3-4.8-2.1-10.1,2.1-14.3c0,0.2,0,0.4,0,0.6c0.1-0.2,0.2-0.4,0.3-0.6c0.3-2.1,0.5-4.5,0.8-6.9
		c-0.1-0.2-0.1-0.4-0.1-0.6c-0.5-1.7-0.7-3.6-1-5.5c-7.1,25.2-4.7,50.9-4.2,76.3c0,7.7,2.1,15.7,5,22.8c1.5,3.7,1.5-1.6,2.6-2.4
		c0-0.1-0.1-0.1-0.1-0.2c-3.8-6.4-1.2-13.7-3.3-20.2C760.9,914.4,763,909.1,762.8,904.3z"/>
	<path  d="M1902.3,1538.2c-40,0-77.6,9.8-114.4,24.6c-47.6,19-90,47.9-134.5,73.3c-41.6,23.6-84.7,43.7-132.4,51.9
		c-21.2,3.7-23.3,1.3-20.7-19.6c3.1-23.8,8.7-47.6,8.7-72c-5.3-20.4-1.1-41-2.4-61.4c-0.3-3.8-1.4-8.1,1.5-11.5
		c0.1-0.4,0.2-0.8,0.3-1.1c0-4.5,0.2-9-0.3-13.2c-15.3-109.1-60.9-202.6-143.5-277c-16.9-15.1-17.2-15.4-4.2-33.9
		c33.1-48,66.2-95.9,89-149.9c24.3-57.7,41-117.3,43.4-180.3c0,0,0-0.1,0-0.1c-2.8-2.6-2.1-6.2-2.1-9.5v-80.8c0-3.3-0.7-6.8,2.1-9.5
		c0-0.2,0-0.5,0-0.7c1.3-10.6-1.1-20.9-2.4-31.5c-4.5-38.4-12.5-75.8-27.3-111.5c-5.1-12.2-11.9-14.9-23.6-10.9
		c-14.6,5.1-29.1,10.9-42.1,19.1c-11.1,7.2-14.8,3.5-19.6-7.1c-19-41.8-37.8-83.7-62.2-122.6c-13.2-21.5-29.9-23.9-49.5-7.7
		c-10.6,8.7-18.8,19.5-26.2,31.2c-19.9,30.9-34.7,64.3-46.6,99c-3.1,9.5-7.6,12.4-17.7,11.9c-79.4-3.4-148.8,22.3-204.9,78.4
		c-24.9,24.9-52.4,42.6-85,54.3c-6.4,2.4-12.2,5.3-15.9,11.1c-26,42.9-43.5,87.7-31.8,139.3c10.3,45.8,32.8,85.2,61.7,121.5
		c5.2,6.6,4.5,9.5-1.9,14c-10.3,7.4-20.1,15.9-29.9,24.1c-111.8,91.3-166.1,209.4-162.1,353.2c0.5,24.9-4.8,41.9-22.5,59.6
		c-30.2,30.2-55.4,65.1-63.6,108c-10.1,54-1.6,106.1,23.3,155.4c11.1,22.5,25.2,41.1,57.2,34.7c-9.2,14.3-16.9,26-20.9,39.5
		c-7.7,25.2-0.8,42.4,22.5,53.8c33.9,16.7,69.6,25.1,107.5,21.7c37.1-3.4,65.1-20.4,80.5-55.6c5.3-12.1,9.6-24.6,13-37.3
		c5-19.1,10.1-38.4,15.1-57.5c1.6-5.8,4.3-10.1,9.3-3.2c10.3,14.8,23.8,26.7,40.2,36.8c-5.1,3.2-8.5,5.3-11.7,7.4
		c-30.5,19.9-44.8,48.7-39.2,79.2c6.3,33.9,23.8,49.3,65.1,57.5c25.9,5,51.9,4.2,77.8,2.6c90-5.3,179.8-10.5,269-22.2
		c31.8-4.2,63.3-8.4,87.1-33.6c2.4-2.3,7.2-3.1,10.9-4.2c100.9-31.8,197.8-73.3,286.8-130.8c66.4-43.2,134.5-82.1,213.4-98.8
		c27.6-5.8,42.7-32.1,38.7-59.6C1961.1,1557,1937,1538.2,1902.3,1538.2z"/>
	<path  d="M1490.7,777.7v80.8c0,3.3-0.7,6.9,2.1,9.5c0.1,0.1,0.2,0.2,0.3,0.3c3.7-33.4,3.5-67,0-100.4
		c-0.1,0.1-0.2,0.2-0.3,0.3C1490,770.9,1490.7,774.4,1490.7,777.7z"/>
	<path  d="M1506.6,1535c1.3,20.4-2.9,41,2.4,61.4c2.9-24.6,3.4-49.2,0-73.8c-0.4,0.3-0.7,0.6-0.9,0.9
		C1505.2,1526.9,1506.3,1531.2,1506.6,1535z"/>
	<path  d="M764.9,918.6c0-4.3,0.5-8.8-1.4-12.9c-0.2-0.5-0.4-0.9-0.7-1.4C763,909.1,760.9,914.4,764.9,918.6z"/>
	<path  d="M762.8,869.6c0.6-1,1-2.1,1.3-3.2c1-3.4,0.9-7,0.8-10.5c0-0.2,0-0.4,0-0.6
		C760.7,859.5,763.1,864.8,762.8,869.6z"/>
</g>
</svg>
