<svg xmlns="http://www.w3.org/2000/svg" xmlns:xlink="http://www.w3.org/1999/xlink" viewBox="0 0 350 220">
  <defs>
    <style>
      .cls-1, .cls-15, .cls-23, .cls-24, .cls-25, .cls-29, .cls-30, .cls-32, .cls-33, .cls-35, .cls-39, .cls-9 {
        fill: none;
      }

      .cls-2, .cls-45 {
        fill: #2cb8d2;
      }

      .cls-3 {
        clip-path: url(#clip-path);
      }

      .cls-36, .cls-4 {
        fill: #fd8a66;
      }

      .cls-27, .cls-28, .cls-5 {
        fill: #80d4e4;
      }

      .cls-6, .cls-8 {
        fill: #d5f1f6;
      }

      .cls-7 {
        fill: #56c6db;
      }

      .cls-10, .cls-12, .cls-13, .cls-14, .cls-15, .cls-18, .cls-19, .cls-20, .cls-23, .cls-34, .cls-36, .cls-37, .cls-39, .cls-41, .cls-45, .cls-8, .cls-9 {
        stroke: #2cb8d2;
      }

      .cls-13, .cls-14, .cls-15, .cls-17, .cls-18, .cls-20, .cls-22, .cls-23, .cls-24, .cls-25, .cls-26, .cls-27, .cls-28, .cls-29, .cls-30, .cls-31, .cls-33, .cls-37, .cls-39, .cls-8, .cls-9 {
        stroke-miterlimit: 10;
      }

      .cls-10, .cls-12, .cls-14, .cls-17, .cls-18, .cls-19, .cls-20, .cls-21, .cls-22, .cls-26, .cls-34, .cls-37, .cls-41 {
        fill: #fff;
      }

      .cls-10, .cls-12, .cls-19, .cls-32, .cls-34, .cls-35, .cls-36, .cls-41, .cls-45 {
        stroke-linejoin: round;
      }

      .cls-11, .cls-13, .cls-31 {
        fill: #abe3ed;
      }

      .cls-12, .cls-13, .cls-14, .cls-15, .cls-19, .cls-20, .cls-23, .cls-26, .cls-27, .cls-28, .cls-29, .cls-30, .cls-31, .cls-32, .cls-33, .cls-35, .cls-36 {
        stroke-width: 0.5px;
      }

      .cls-16 {
        fill: #feca40;
      }

      .cls-17, .cls-22 {
        stroke: #fd8a66;
      }

      .cls-17, .cls-18, .cls-19, .cls-20, .cls-23, .cls-24, .cls-26, .cls-30, .cls-32, .cls-34, .cls-35 {
        stroke-linecap: round;
      }

      .cls-17 {
        stroke-width: 2px;
      }

      .cls-24, .cls-25, .cls-27, .cls-32, .cls-33 {
        stroke: #abe3ed;
      }

      .cls-26, .cls-28, .cls-29, .cls-31 {
        stroke: #d5f1f6;
      }

      .cls-30, .cls-35 {
        stroke: #fff;
      }

      .cls-37, .cls-39, .cls-41, .cls-45 {
        stroke-width: 0.25px;
      }

      .cls-38 {
        clip-path: url(#clip-path-2);
      }

      .cls-40 {
        fill: #24537f;
      }

      .cls-42 {
        clip-path: url(#clip-path-3);
      }

      .cls-43 {
        clip-path: url(#clip-path-4);
      }

      .cls-44 {
        clip-path: url(#clip-path-5);
      }

      .cls-46 {
        clip-path: url(#clip-path-6);
      }

      .cls-47 {
        clip-path: url(#clip-path-7);
      }

      .cls-48 {
        clip-path: url(#clip-path-8);
      }

      .cls-49 {
        clip-path: url(#clip-path-9);
      }

      .cls-50 {
        clip-path: url(#clip-path-10);
      }

      .cls-1b {
        fill: none;
      }

      .cls-2b {
        clip-path: url(#clip-pathb);
      }

      .cls-3b {
        fill: #fd8a66;
      }

      .cls-4b {
        fill: #d5f1f6;
      }

      .cls-5b {
        fill: #80d4e4;
      }
    </style>
    <clipPath id="clip-pathb" transform="translate(0 -3.43)">
      <rect class="cls-1b" x="271.67" width="125.52" height="11.24"/>
    </clipPath>
    <clipPath id="clip-path">
      <rect class="cls-1" x="106.59" y="107.44" width="125.52" height="11.24"/>
    </clipPath>
    <clipPath id="clip-path-2">
      <rect class="cls-1" x="73.29" y="182.59" width="28.59" height="14.64"/>
    </clipPath>
    <clipPath id="clip-path-3">
      <rect class="cls-1" x="19.99" y="182.48" width="19.59" height="10.18"/>
    </clipPath>
    <clipPath id="clip-path-4">
      <rect class="cls-1" x="70.44" y="137.33" width="19.59" height="10.18"/>
    </clipPath>
    <clipPath id="clip-path-5">
      <rect class="cls-1" x="25.98" y="93.12" width="19.59" height="10.18"/>
    </clipPath>
    <clipPath id="clip-path-6">
      <rect class="cls-1" x="43.71" y="185.49" width="20.81" height="9.72"/>
    </clipPath>
    <clipPath id="clip-path-7">
      <rect class="cls-1" x="281.93" y="181.82" width="28.07" height="12.38"/>
    </clipPath>
    <clipPath id="clip-path-8">
      <rect class="cls-1" x="179.25" y="96.76" width="12.05" height="7.47"/>
    </clipPath>
    <clipPath id="clip-path-9">
      <rect class="cls-1" x="190.32" y="96.76" width="12.05" height="7.47"/>
    </clipPath>
    <clipPath id="clip-path-10">
      <rect class="cls-1" x="88.53" y="140.06" width="12.05" height="7.47"/>
    </clipPath>
  </defs>
  <title>CLICKTOOL_CITY_2019</title>
  <g id="Layer_1" data-name="Layer 1">
    <rect class="cls-2" x="137.79" y="111.18" width="8.1" height="22.55"/>
    <polygon class="cls-2" points="116.89 126.83 118.01 110.97 126.41 110.97 127.72 126.53 116.89 126.83"/>
    
    <!-- train clipping mask -->
    <g id="train-clip">
      
      <!-- train -->
      <g class="cls-3">
        <g>
        <animateTransform attributeName="transform"
          type="translate"
          values="
            -500 110;
            500 110;"
          begin="0s"
          dur="10s"
          repeatCount="indefinite"/>
            <path class="cls-3b" d="M258.53,8.29h11a.25.25,0,0,0,.07-.48l-3.9-2.15h-1.6Z" transform="translate(0 -3.43)"/>
            <polygon class="cls-3b" points="260.81 0.64 263.07 1.14 264.68 1.14 262.39 0 260.7 0 231.84 0 231.95 0.64 256.52 0.64 260.81 0.64"/>
            <path class="cls-4b" d="M269.49,8.28l-5.41-2.62H252.34l-.19-1.1h10.92l-2.26-.49H232l.72,4.22h0l1.81.72a2.84,2.84,0,0,0,.93.13h1.16a7.25,7.25,0,0,0,3.31-.85h24l1.14.45a7.86,7.86,0,0,0,2.76.4,2.41,2.41,0,0,0,1.75-.85Z" transform="translate(0 -3.43)"/>
            <path class="cls-4b" d="M203.05,4.07l.72,4.22h0l1.81.72a3,3,0,0,0,.94.13h1.15A7.33,7.33,0,0,0,211,8.29h13l1.81.72a2.9,2.9,0,0,0,.94.13h1.15a7.33,7.33,0,0,0,3.32-.85l-.72-4.22Z" transform="translate(0 -3.43)"/>
            <polygon class="cls-3b" points="230.41 0 228.8 0 202.94 0 203.05 0.64 230.52 0.64 230.41 0"/>
            <path class="cls-4b" d="M174.06,4.07l.72,4.22h0l1.81.72a2.9,2.9,0,0,0,.94.13h1.15A7.33,7.33,0,0,0,182,8.29h13l1.81.72a2.9,2.9,0,0,0,.94.13h1.15a7.33,7.33,0,0,0,3.32-.85l-.73-4.22Z" transform="translate(0 -3.43)"/>
            <polygon class="cls-3b" points="201.42 0 199.81 0 173.95 0 174.06 0.64 201.53 0.64 201.42 0"/>
            <path class="cls-4b" d="M145.07,4.07l.72,4.22h0L147.6,9a2.9,2.9,0,0,0,.94.13h1.15A7.33,7.33,0,0,0,153,8.29h13l1.8.72a3,3,0,0,0,.94.13h1.16a7.29,7.29,0,0,0,3.31-.85l-.72-4.22Z" transform="translate(0 -3.43)"/>
            <polygon class="cls-3b" points="172.42 0 170.82 0 144.96 0 145.07 0.64 172.53 0.64 172.42 0"/>
            <path class="cls-4b" d="M116.08,4.07l.72,4.22h0l1.8.72a3,3,0,0,0,.94.13h1.16A7.25,7.25,0,0,0,124,8.29h13l1.8.72a3,3,0,0,0,.94.13H141a7.29,7.29,0,0,0,3.31-.85l-.72-4.22Z" transform="translate(0 -3.43)"/>
            <polygon class="cls-3b" points="143.43 0 141.83 0 115.97 0 116.08 0.64 143.54 0.64 143.43 0"/>
            <path class="cls-4b" d="M87.08,4.07l.73,4.22h0l1.8.72a3,3,0,0,0,.94.13h1.16A7.29,7.29,0,0,0,95,8.29h13l1.81.72a3,3,0,0,0,.94.13H112a7.33,7.33,0,0,0,3.32-.85l-.72-4.22Z" transform="translate(0 -3.43)"/>
            <polygon class="cls-3b" points="114.44 0 112.84 0 86.97 0 87.08 0.64 114.55 0.64 114.44 0"/>
            <path class="cls-4b" d="M58.09,4.07l.72,4.22h0l1.8.72a3,3,0,0,0,.94.13h1.15A7.33,7.33,0,0,0,66,8.29h13L80.87,9a3,3,0,0,0,.94.13H83a7.33,7.33,0,0,0,3.32-.85l-.72-4.22Z" transform="translate(0 -3.43)"/>
            <polygon class="cls-3b" points="85.45 0 83.84 0 57.98 0 58.09 0.64 85.56 0.64 85.45 0"/>
            <path class="cls-4b" d="M29.1,4.07l.72,4.22h0L31.63,9a3,3,0,0,0,.94.13h1.15A7.33,7.33,0,0,0,37,8.29h13L51.88,9a2.9,2.9,0,0,0,.94.13H54a7.33,7.33,0,0,0,3.32-.85l-.72-4.22Z" transform="translate(0 -3.43)"/>
            <polygon class="cls-3b" points="56.46 0 54.85 0 28.99 0 29.1 0.64 56.57 0.64 56.46 0"/>
            <path class="cls-4b" d="M.11,4.07.83,8.29h0L2.64,9a2.9,2.9,0,0,0,.94.13H4.73a7.33,7.33,0,0,0,3.32-.85h13L22.89,9a2.84,2.84,0,0,0,.93.13H25a7.33,7.33,0,0,0,3.32-.85l-.73-4.22Z" transform="translate(0 -3.43)"/>
            <polygon class="cls-3b" points="27.46 0 25.86 0 0 0 0.11 0.64 27.57 0.64 27.46 0"/>
            <g>
              <g>
                <polygon class="cls-5b" points="204.52 2.23 229.76 2.23 229.56 1.14 204.31 1.14 204.52 2.23"/>
                <polygon class="cls-5b" points="175.57 2.23 200.74 2.23 200.54 1.14 175.37 1.14 175.57 2.23"/>
                <polygon class="cls-5b" points="146.62 2.23 171.72 2.23 171.51 1.14 146.41 1.14 146.62 2.23"/>
                <polygon class="cls-5b" points="117.67 2.23 142.69 2.23 142.49 1.14 117.47 1.14 117.67 2.23"/>
                <polygon class="cls-5b" points="88.72 2.23 113.67 2.23 113.47 1.14 88.52 1.14 88.72 2.23"/>
                <polygon class="cls-5b" points="59.77 2.23 84.65 2.23 84.44 1.14 59.56 1.14 59.77 2.23"/>
                <polygon class="cls-5b" points="30.82 2.23 55.63 2.23 55.42 1.14 30.61 1.14 30.82 2.23"/>
                <polygon class="cls-5b" points="1.87 2.23 26.6 2.23 26.4 1.14 1.67 1.14 1.87 2.23"/>
              </g>
              <polygon class="cls-5b" points="250.76 2.23 233.39 2.23 233.18 1.14 250.56 1.14 250.76 2.23"/>
            </g>
            <polygon class="cls-5b" points="265.68 2.23 252.34 2.23 252.15 1.14 264.68 1.14 265.68 2.23"/>
          
        </g>
      </g>
    </g>
    <g id="stuff">
      <polygon class="cls-7" points="174.72 130.15 181.45 130.15 181.45 128.25 189.46 128.25 189.46 130.15 200.26 130.15 200.63 147.67 175.08 147.67 174.72 130.15"/>
      <path id="MIDSKY" class="cls-8" d="M322.2,104.66a22.31,22.31,0,0,0,0-44.61H63.65v44.61Z"/>
      <path id="BOTTOMSKY" class="cls-8" d="M322.2,192.62a22.31,22.31,0,0,0,0-44.61H36.83v44.61Z"/>
      <path id="MIDSKY-2" data-name="MIDSKY" class="cls-9" d="M322.2,104.66a22.31,22.31,0,0,0,0-44.61H63.65v44.61Z"/>
      <path id="TOPSKY" class="cls-9" d="M28.53,103.79a22.31,22.31,0,0,0,0,44.61H67.08V103.79Z"/>
      <g>
        <g>
          <rect class="cls-2" x="109.18" y="157.68" width="10.69" height="34.4"/>
          <polygon class="cls-2" points="297.94 160.72 289.64 160.72 289.64 177.94 286.7 177.94 286.7 156.33 274.26 156.33 274.26 168.62 239.96 171.69 238.5 171.69 238.5 169.49 226.56 169.46 226.59 171.69 224.54 171.69 224.48 165.4 214.63 165.42 214.56 182.21 212.88 182.21 212.88 185.55 206.29 185.55 206.29 192.18 312.99 192.18 297.94 160.72"/>
          <polygon class="cls-2" points="201.88 192.18 201.88 174.32 191.04 174.32 191.04 186.98 178.41 186.98 178.41 181.03 176.69 181.03 176.69 178.06 162.64 178.06 162.64 181.03 160.44 181.03 160.44 164.36 151.16 164.36 151.16 192.18 201.88 192.18"/>
          <polygon class="cls-2" points="150.54 192.09 150.54 172.47 142.36 172.47 142.36 182.72 139.85 182.72 139.85 165.95 128.58 165.95 128.58 192.09 150.54 192.09"/>
          <polygon class="cls-2" points="89.32 179.36 89.32 158.98 84.53 153.95 84.53 148.59 82.96 148.59 82.96 153.95 78.17 159.29 78.17 165.44 78.17 178.84 89.32 179.36"/>
          <polygon class="cls-2" points="76.82 192.62 76.82 161.37 74.03 157.55 74.03 153.47 73.11 153.47 73.11 157.55 70.31 161.61 70.31 166.29 70.31 192.71 76.82 192.62"/>
        </g>
        <rect class="cls-5" x="80.05" y="90.94" width="27.87" height="13.78"/>
        <polygon class="cls-2" points="44.64 115.99 44.64 112.5 27.14 112.5 27.14 115.99 23.34 115.99 23.34 123.31 47.45 123.31 47.45 115.99 44.64 115.99"/>
        <polygon class="cls-2" points="274.01 71.41 274.01 69.99 281.09 62.85 281.09 104.66 277.83 104.66 277.83 71.41 274.01 71.41"/>
        <polygon class="cls-2" points="180.77 87.65 180.77 82.35 157.05 82.35 157.05 87.65 153.93 87.65 153.93 74.22 150.41 74.22 150.41 69.99 125.23 69.99 125.23 74.22 120.84 74.22 120.84 104.11 184.38 104.11 184.38 87.65 180.77 87.65"/>
        <g>
          <path class="cls-1" d="M221.08,77.87h3.61v-1a3.3,3.3,0,0,1-2.48-2.24H220a3.31,3.31,0,0,1-2.39,2.22V82h3.52Z"/>
          <path class="cls-2" d="M232.72,81V76.87H227.4v-1.1a3.31,3.31,0,0,0,.19-6.23V66.72a3.32,3.32,0,1,0-2,.14V69.4a3.31,3.31,0,0,0-2.38,2.22H221a3.32,3.32,0,1,0-4.14,4.17V81h-2.34v23.3h20.78V81Zm-14.16-5.17A3.31,3.31,0,0,0,221,73.62h2.26a3.3,3.3,0,0,0,2.48,2.24v1h-3.61V81h-3.52Z"/>
        </g>
      </g>
      <line class="cls-10" x1="199.17" y1="146.01" x2="212.34" y2="146.01"/>
      <rect class="cls-5" x="106.59" y="128.35" width="71.98" height="19.16"/>
      <rect class="cls-11" x="68.82" y="130.76" width="54.2" height="16.74"/>
      <rect class="cls-7" x="106.59" y="125.29" width="73.03" height="3.07"/>
      <path class="cls-11" d="M228.3,133.31c0-7.33-8.21-13.25-18.35-13.25H181c-8.28,0-15,6.22-15,13.9v13h-5.32V133.79c0-7.59-6.68-13.73-14.93-13.73H112.89s-4.35.39-6.3,1.85v-6H280.71v4.39H249.19c-8.42,0-15.23,5.84-15.23,13.06v14.22H228.3V133.31"/>
      <g>
        <rect class="cls-11" x="49.58" y="55.53" width="23.82" height="33.48" transform="translate(122.99 144.54) rotate(180)"/>
        <rect class="cls-2" x="73.41" y="55.53" width="4.88" height="33.48"/>
        <rect class="cls-4" x="55.47" y="53.85" width="12.52" height="1.68"/>
      </g>
      <g>
        <rect class="cls-11" x="133.04" y="48.86" width="14.27" height="46"/>
        <polygon class="cls-4" points="140.18 42.94 133.04 48.86 147.31 48.86 140.18 42.94"/>
        <g>
          <line class="cls-12" x1="133.04" y1="90.54" x2="147.31" y2="90.54"/>
          <line class="cls-12" x1="133.04" y1="86.63" x2="147.31" y2="86.63"/>
          <line class="cls-12" x1="133.04" y1="82.72" x2="147.31" y2="82.72"/>
          <line class="cls-12" x1="133.04" y1="78.81" x2="147.31" y2="78.81"/>
          <line class="cls-12" x1="133.04" y1="74.9" x2="147.31" y2="74.9"/>
          <line class="cls-12" x1="133.04" y1="70.99" x2="147.31" y2="70.99"/>
        </g>
        <rect class="cls-13" x="128.26" y="94.86" width="24.99" height="4.27"/>
        <rect class="cls-6" x="133.04" y="62.99" width="14.21" height="4.27"/>
        <rect class="cls-13" x="128.26" y="99.13" width="24.99" height="4.27"/>
      </g>
      <g>
        <g>
          <polygon class="cls-6" points="33 103.29 33 64.9 40.91 56.76 40.91 62.64 61.73 62.64 61.73 103.29 33 103.29"/>
          <rect class="cls-14" x="79.26" y="105.97" width="5.42" height="24.3" transform="translate(163.94 236.23) rotate(180)"/>
          <line class="cls-14" x1="55.58" y1="62.64" x2="55.58" y2="104.66"/>
        </g>
        <line class="cls-15" x1="33" y1="71.08" x2="48.91" y2="71.08"/>
        <line class="cls-15" x1="33" y1="74.01" x2="48.91" y2="74.01"/>
        <line class="cls-15" x1="33" y1="76.94" x2="48.91" y2="76.94"/>
        <line class="cls-15" x1="33" y1="79.87" x2="48.91" y2="79.87"/>
        <line class="cls-15" x1="33" y1="82.8" x2="48.91" y2="82.8"/>
        <line class="cls-15" x1="33" y1="85.72" x2="48.91" y2="85.72"/>
        <line class="cls-15" x1="33" y1="88.65" x2="48.91" y2="88.65"/>
        <line class="cls-15" x1="33" y1="91.58" x2="48.91" y2="91.58"/>
      </g>
      <rect class="cls-6" x="44.71" y="92.86" width="38.94" height="37.41"/>
      <rect class="cls-7" x="17.19" y="119.75" width="27.52" height="15.71" transform="translate(61.9 255.22) rotate(180)"/>
      <g>
        <rect class="cls-11" x="21.68" y="123.96" width="1.15" height="55.88"/>
        <rect class="cls-11" x="26.93" y="123.96" width="1.15" height="55.88"/>
        <rect class="cls-11" x="32.18" y="123.96" width="1.15" height="55.88"/>
        <rect class="cls-11" x="37.43" y="123.96" width="1.15" height="55.88"/>
        <rect class="cls-11" x="42.68" y="123.96" width="1.15" height="55.88"/>
      </g>
      <g id="pumper3">
        <rect class="cls-11" x="120.05" y="162.49" width="7.25" height="12.81" rx="3.62" ry="3.62"/>
        <path class="cls-5" d="M123.67,168.9h0a6.73,6.73,0,0,1,6.73,6.73v14.93a2.26,2.26,0,0,1-2.26,2.26H119.2a2.26,2.26,0,0,1-2.26-2.26V175.63a6.73,6.73,0,0,1,6.73-6.73Z"/>
        <rect class="cls-11" x="115.12" y="175.58" width="16.69" height="2.49"/>
        <rect class="cls-11" x="115.12" y="182.17" width="16.69" height="2.49"/>
      </g>
      <rect class="cls-2" x="240.89" y="68.56" width="19.4" height="2.85"/>
      <rect class="cls-6" x="232.11" y="70.83" width="45.45" height="76.22"/>
      <rect class="cls-11" x="268.81" y="71.41" width="8.74" height="54.1"/>
      <rect class="cls-5" x="268.81" y="70.83" width="9.06" height="6.2"/>
      <g>
        <rect class="cls-2" x="236.42" y="109.31" width="3" height="14.17"/>
        <rect class="cls-2" x="241.43" y="109.31" width="3" height="14.17"/>
        <rect class="cls-2" x="246.45" y="109.31" width="3" height="14.17"/>
        <rect class="cls-2" x="251.47" y="109.31" width="3" height="14.17"/>
        <rect class="cls-2" x="256.48" y="109.31" width="3" height="14.17"/>
        <rect class="cls-2" x="261.5" y="109.31" width="3" height="14.17"/>
      </g>
      <g>
        <rect class="cls-2" x="236.42" y="125.31" width="3" height="14.17"/>
        <rect class="cls-2" x="241.43" y="125.31" width="3" height="14.17"/>
        <rect class="cls-2" x="246.45" y="125.31" width="3" height="14.17"/>
        <rect class="cls-2" x="251.47" y="125.31" width="3" height="14.17"/>
        <rect class="cls-2" x="256.48" y="125.31" width="3" height="14.17"/>
        <rect class="cls-2" x="261.5" y="125.31" width="3" height="14.17"/>
      </g>
      <g>
        <polygon class="cls-5" points="205.75 31.42 199.17 146.01 212.34 146.01 205.75 31.42"/>
        <circle class="cls-16" cx="205.75" cy="69.36" r="6.59"/>
        <line class="cls-17" x1="199.12" y1="65.76" x2="212.34" y2="65.76"/>
        <line class="cls-17" x1="212.34" y1="73.03" x2="199.12" y2="73.03"/>
        <rect class="cls-11" x="198.65" y="89.98" width="14.13" height="6.08" rx="2.37" ry="2.37"/>
      </g>
      <rect class="cls-2" x="204.78" y="119.56" width="16.98" height="28.45"/>
      <rect class="cls-7" x="211.17" y="117.82" width="4.39" height="30.19"/>
      <polygon class="cls-6" points="205.87 123.17 212.78 123.17 212.78 148.01 198.95 148.01 198.95 130.39 205.87 123.17"/>
      <line class="cls-18" x1="120.06" y1="202.03" x2="131.97" y2="202.03"/>
      <line class="cls-18" x1="141.44" y1="202.03" x2="146.51" y2="202.03"/>
      <line class="cls-18" x1="149.93" y1="202.03" x2="161.54" y2="202.03"/>
      <line class="cls-19" x1="36.12" y1="192.62" x2="68.82" y2="192.62"/>
      <g>
        <line class="cls-19" x1="136.21" y1="62.99" x2="136.21" y2="67.26"/>
        <line class="cls-19" x1="138.2" y1="62.99" x2="138.2" y2="67.26"/>
        <line class="cls-19" x1="140.18" y1="62.99" x2="140.18" y2="67.26"/>
        <line class="cls-19" x1="142.16" y1="62.99" x2="142.16" y2="67.26"/>
        <line class="cls-19" x1="144.14" y1="62.99" x2="144.14" y2="67.26"/>
        <line class="cls-19" x1="134.23" y1="62.99" x2="134.23" y2="67.26"/>
        <line class="cls-19" x1="146.13" y1="62.99" x2="146.13" y2="67.26"/>
      </g>
      <g>
        <polygon class="cls-11" points="158.91 103.72 161.2 80.99 167.09 77.38 172.72 80.8 175.01 103.72 158.91 103.72"/>
        <line class="cls-20" x1="159.32" y1="99.58" x2="164.52" y2="99.58"/>
        <line class="cls-20" x1="166.57" y1="95.1" x2="168.08" y2="95.1"/>
        <line class="cls-20" x1="169.98" y1="95.1" x2="174.17" y2="95.1"/>
      </g>
      <path class="cls-5" d="M45.32,89h0a8.31,8.31,0,0,1,8.3-8.3H74.7A8.31,8.31,0,0,1,83,89H45.32Z"/>
      <rect class="cls-7" x="43.15" y="89.01" width="42.02" height="3.85"/>
      <g>
        <rect class="cls-21" x="280.81" y="56.74" width="38.16" height="91.15"/>
        <rect class="cls-11" x="280.81" y="56.74" width="38.16" height="91.15"/>
        <path class="cls-2" d="M319.25,64.46h-39V61.3h39Zm0,6.07h-39v3.16h39Zm0,9.24h-39v3.16h39Zm0,9.23h-39v3.16h39Zm0,9.23h-39v3.16h39Zm0,9.23h-39v3.16h39Zm0,9.23h-39v3.16h39Zm0,9.24h-39v3.16h39Zm0,9.23h-39v3.16h39Zm0,9.23h-39V148h39Z"/>
        <line class="cls-14" x1="313.36" y1="56.55" x2="313.36" y2="148.06"/>
        <line class="cls-14" x1="316.29" y1="56.55" x2="316.29" y2="148.06"/>
        <rect class="cls-11" x="280.81" y="51.93" width="1.95" height="4.81"/>
        <rect class="cls-7" x="283.93" y="48" width="32.35" height="8.74"/>
        <polygon class="cls-5" points="313.36 42.11 288.03 42.11 288.03 48 316.29 48 313.36 42.11"/>
        <rect class="cls-6" x="301.01" y="7.99" width="2.39" height="32.1"/>
        <ellipse class="cls-16" cx="302.33" cy="32.94" rx="4.2" ry="4.18"/>
        <rect class="cls-4" x="296.87" y="31.4" width="10.93" height="3.08" rx="1.01" ry="1.01"/>
        <rect class="cls-7" x="298.89" y="39.74" width="6.88" height="2.3"/>
        <line class="cls-20" x1="299.45" y1="12.31" x2="305.21" y2="12.31"/>
        <line class="cls-20" x1="299.45" y1="15.03" x2="305.21" y2="15.03"/>
        <ellipse id="blinky-light" class="cls-22" cx="302.14" cy="7.74" rx="2.15" ry="2.14"/>
      </g>
      <g>
        <rect class="cls-5" x="102.2" y="77.76" width="6.25" height="25.91" transform="translate(210.65 181.44) rotate(180)"/>
        <rect class="cls-11" x="102.2" y="86.66" width="6.25" height="17.01" transform="translate(210.65 190.34) rotate(180)"/>
        <rect class="cls-21" x="108.45" y="77.76" width="19.81" height="25.64"/>
        <rect class="cls-6" x="114.79" y="92.43" width="7.52" height="10.97"/>
      </g>
      <rect class="cls-5" x="75.85" y="105.97" width="30.74" height="24.3"/>
      <rect class="cls-6" x="88.71" y="126.85" width="14.35" height="2.42"/>
      <rect class="cls-6" x="88.71" y="123.85" width="14.35" height="2.42"/>
      <rect class="cls-6" x="88.71" y="120.85" width="14.35" height="2.42"/>
      <rect class="cls-6" x="88.71" y="117.85" width="14.35" height="2.42"/>
      <rect class="cls-6" x="88.71" y="114.85" width="14.35" height="2.42"/>
      <rect class="cls-6" x="88.71" y="111.85" width="14.35" height="2.42"/>
      <rect class="cls-6" x="88.71" y="108.85" width="14.35" height="2.42"/>
      <g>
        <path class="cls-5" d="M248.46,144.2a2.34,2.34,0,1,0-2.35-2.34,2.34,2.34,0,0,0,2.35,2.34"/>
        <line class="cls-23" x1="248.46" y1="144.2" x2="248.46" y2="141.86"/>
        <line class="cls-23" x1="248.46" y1="144.2" x2="248.46" y2="148.01"/>
      </g>
      <g>
        <path class="cls-21" d="M123.67,188.65a2.34,2.34,0,1,0-2.34-2.34,2.34,2.34,0,0,0,2.34,2.34"/>
        <line class="cls-20" x1="123.67" y1="188.65" x2="123.67" y2="186.31"/>
        <line class="cls-20" x1="123.67" y1="188.65" x2="123.67" y2="192.46"/>
      </g>
      <g>
        <path class="cls-5" d="M255.73,142.43h.19a4,4,0,0,0,2.31-7.26,3,3,0,1,0-4.61,0,4,4,0,0,0,2.11,7.25"/>
        <line class="cls-23" x1="255.73" y1="137.42" x2="255.73" y2="139.52"/>
        <line class="cls-23" x1="255.73" y1="142.43" x2="255.73" y2="148.01"/>
        <line class="cls-23" x1="255.73" y1="142.43" x2="255.73" y2="139.52"/>
        <line class="cls-23" x1="255.73" y1="139.52" x2="254.29" y2="138.39"/>
      </g>
      <g>
        <path class="cls-11" d="M325.9,187.74h.2a4,4,0,0,0,2.3-7.26,3,3,0,1,0-4.61,0,4,4,0,0,0,2.11,7.25"/>
        <line class="cls-23" x1="325.9" y1="182.73" x2="325.9" y2="184.83"/>
        <line class="cls-23" x1="325.9" y1="187.74" x2="325.9" y2="193.32"/>
        <line class="cls-23" x1="325.9" y1="187.74" x2="325.9" y2="184.83"/>
        <line class="cls-23" x1="325.9" y1="184.83" x2="324.46" y2="183.7"/>
      </g>
      <g>
        <path class="cls-6" d="M179.74,143.79a2.35,2.35,0,1,0-2.34-2.35,2.35,2.35,0,0,0,2.34,2.35"/>
        <line class="cls-23" x1="179.74" y1="143.79" x2="179.74" y2="141.44"/>
        <line class="cls-23" x1="179.74" y1="143.79" x2="179.74" y2="147.59"/>
      </g>
      <g>
        <path class="cls-6" d="M187.31,142.73h.19a4,4,0,0,0,2.31-7.27,3,3,0,1,0-4.61,0,4,4,0,0,0-1.7,3.26,4,4,0,0,0,3.81,4"/>
        <line class="cls-23" x1="187.31" y1="137.71" x2="187.31" y2="139.81"/>
        <line class="cls-23" x1="187.31" y1="142.73" x2="187.31" y2="148.3"/>
        <line class="cls-23" x1="187.31" y1="142.73" x2="187.31" y2="139.81"/>
        <line class="cls-23" x1="187.31" y1="139.81" x2="185.87" y2="138.69"/>
      </g>
      <g>
        <path class="cls-23" d="M145.28,188.18h.16a3.14,3.14,0,0,0,1.81-5.71,2.38,2.38,0,1,0-4.19-1.53,2.31,2.31,0,0,0,.57,1.53,3.13,3.13,0,0,0,1.65,5.7"/>
        <line class="cls-23" x1="145.28" y1="184.24" x2="145.28" y2="185.89"/>
        <line class="cls-23" x1="145.28" y1="188.18" x2="145.28" y2="192.56"/>
        <line class="cls-23" x1="145.28" y1="188.18" x2="145.28" y2="185.89"/>
        <line class="cls-23" x1="145.28" y1="185.89" x2="144.15" y2="185.01"/>
      </g>
      <g>
        <path class="cls-6" d="M132.31,185.33h.25a5.23,5.23,0,0,0,3-9.5,4,4,0,1,0-7-2.55,3.91,3.91,0,0,0,.94,2.55,5.22,5.22,0,0,0,2.76,9.49"/>
        <line class="cls-24" x1="132.31" y1="178.77" x2="132.31" y2="181.52"/>
        <line class="cls-25" x1="132.31" y1="185.33" x2="132.31" y2="192.62"/>
        <line class="cls-24" x1="132.31" y1="185.33" x2="132.31" y2="181.52"/>
        <line class="cls-24" x1="132.31" y1="181.52" x2="130.43" y2="180.05"/>
      </g>
      <g>
        <path class="cls-6" d="M145.28,188h.16a3.29,3.29,0,0,0,1.89-6,2.49,2.49,0,1,0-3.79,0,3.28,3.28,0,0,0,1.74,6"/>
        <line class="cls-20" x1="145.28" y1="183.92" x2="145.28" y2="185.64"/>
        <line class="cls-20" x1="145.28" y1="188.04" x2="145.28" y2="192.62"/>
        <line class="cls-20" x1="145.28" y1="188.04" x2="145.28" y2="185.64"/>
        <line class="cls-20" x1="145.28" y1="185.64" x2="144.09" y2="184.72"/>
      </g>
      <g id="pumper1">
        <rect id="pumpette1" class="cls-11" x="79.3" y="153.94" width="7.25" height="12.81" rx="3.62" ry="3.62"/>
        <path class="cls-5" d="M83.17,160.27h0A6.73,6.73,0,0,1,89.9,167v10.35a0,0,0,0,1,0,0H76.43a0,0,0,0,1,0,0V167A6.73,6.73,0,0,1,83.17,160.27Z"/>
        <rect class="cls-11" x="74.58" y="166.41" width="16.69" height="2.49"/>
        <rect class="cls-11" x="74.58" y="172.41" width="16.69" height="2.49"/>
      </g>
      <rect class="cls-7" x="68.82" y="130.27" width="55.08" height="3.51"/>
      <path class="cls-7" d="M141.14,192.62s-.82-2.9,1.66-4,3.22.88,3.22.88a2.73,2.73,0,0,1,3.27,0,2.06,2.06,0,0,1,.64,3.08Z"/>
      <g>
        <g>
          <rect class="cls-11" x="4.5" y="135.47" width="31.04" height="57.66"/>
          <line class="cls-26" x1="4.79" y1="142.2" x2="35.54" y2="142.2"/>
          <line class="cls-26" x1="10.06" y1="144.54" x2="35.54" y2="144.54"/>
          <line class="cls-26" x1="10.06" y1="192.62" x2="10.06" y2="135.76"/>
        </g>
        <g>
          <g>
            <rect class="cls-14" x="51.81" y="113.69" width="2.42" height="6.06"/>
            <rect class="cls-14" x="47.09" y="118.66" width="11.71" height="20.71" rx="5.86" ry="5.86"/>
            <rect class="cls-14" x="50.03" y="121.78" width="5.9" height="14.48" rx="2.95" ry="2.95" transform="translate(105.96 258.04) rotate(-180)"/>
            <rect class="cls-2" x="48.91" y="112.53" width="8" height="1.85" rx="0.93" ry="0.93"/>
          </g>
          <rect class="cls-21" x="39.28" y="131.83" width="29.95" height="61.02"/>
          <g>
            <rect class="cls-11" x="43.1" y="137.03" width="1.15" height="55.88"/>
            <rect class="cls-11" x="48.35" y="137.03" width="1.15" height="55.88"/>
            <rect class="cls-11" x="53.6" y="137.03" width="1.15" height="55.88"/>
            <rect class="cls-11" x="58.85" y="137.03" width="1.15" height="55.88"/>
            <rect class="cls-11" x="64.1" y="137.03" width="1.15" height="55.88"/>
          </g>
          <polygon class="cls-5" points="33.99 135.47 35.54 135.47 35.54 192.85 39.28 192.85 39.28 127.61 33.99 127.61 33.99 135.47"/>
          <rect class="cls-11" x="33.99" y="127.61" width="36.59" height="4.22"/>
        </g>
      </g>
      <rect class="cls-6" x="11.62" y="119.75" width="5.56" height="15.71"/>
      <rect class="cls-11" x="32.82" y="113" width="9.84" height="3.08" transform="translate(152.28 76.8) rotate(90)"/>
      <circle class="cls-16" cx="37.77" cy="112.44" r="5.01"/>
      <rect class="cls-11" x="30.77" y="111.6" width="13.94" height="1.79"/>
      <g id="pumper2">
        <rect id="pumpette2" class="cls-11" x="99.03" y="149.03" width="7.25" height="12.81" rx="3.62" ry="3.62"/>
        <path class="cls-5" d="M102.66,155.43h0a6.73,6.73,0,0,1,6.73,6.73v17.19a0,0,0,0,1,0,0H95.92a0,0,0,0,1,0,0V162.17a6.73,6.73,0,0,1,6.73-6.73Z"/>
        <rect class="cls-11" x="93.95" y="161.82" width="16.69" height="2.49"/>
        <rect class="cls-11" x="93.95" y="168.41" width="16.69" height="2.49"/>
      </g>
      <rect class="cls-21" x="73.02" y="176.17" width="38.55" height="15.41"/>
      <g>
        <polyline class="cls-27" points="258.8 145.81 258.8 150.98 252.8 159.09 264.41 159.09 258.8 150.98"/>
        <rect class="cls-28" x="250.26" y="159.08" width="17.08" height="5.91"/>
        <polygon class="cls-5" points="239.74 193.32 239.74 166.73 244.7 166.73 244.7 161.96 272.12 161.96 272.12 166.94 279.39 166.94 279.39 193.2 239.74 193.32"/>
        <line class="cls-29" x1="254.63" y1="156.61" x2="262.74" y2="156.61"/>
        <line class="cls-29" x1="256.51" y1="154.08" x2="260.95" y2="154.08"/>
      </g>
      <g>
        <g>
          <path class="cls-5" d="M323.33,193.2l-15-28.27A9,9,0,0,1,307,165a8.35,8.35,0,0,1-2.24-.3,8.48,8.48,0,0,1-11.4,0,8.29,8.29,0,0,1-2.24.3,7.94,7.94,0,0,1-.85,0l-14.95,28.2Z"/>
          <path class="cls-21" d="M293.33,164.74a8.48,8.48,0,0,0,11.4,0,8.35,8.35,0,0,0,2.24.3,9,9,0,0,0,1.38-.11l-3.1-5.87a6.72,6.72,0,0,0-11.87,0L290.24,165a7.94,7.94,0,0,0,.85,0A8.29,8.29,0,0,0,293.33,164.74Z"/>
        </g>
        <g>
          <g>
            <path class="cls-21" d="M282.07,172.45l-2.2-4.28a4.69,4.69,0,0,0-8.41,0l-2.23,4.33,6.42,3.72Z"/>
            <path class="cls-11" d="M292.68,193.09l-10.61-20.64a6.37,6.37,0,0,1-1,.08,6,6,0,0,1-1.59-.22,5.87,5.87,0,0,1-8.08,0,5.93,5.93,0,0,1-1.59.22q-.3,0-.6,0l-10.59,20.59Z"/>
          </g>
          <path class="cls-2" d="M275.66,179.4a3.29,3.29,0,0,0-3.29,3.3v10.5H279V182.7A3.3,3.3,0,0,0,275.66,179.4Z"/>
        </g>
      </g>
      <path class="cls-2" d="M323.5,193.55a4.23,4.23,0,0,0-7.27-1.62,2.83,2.83,0,0,0-4.63,1.62Z"/>
      <g>
        <line class="cls-30" x1="93.4" y1="71.08" x2="93.4" y2="73.1"/>
        <path class="cls-31" d="M98.93,79.94v-1.3A5.54,5.54,0,0,0,93.4,73.1h0a5.54,5.54,0,0,0-5.54,5.54v1.3Z"/>
        <rect class="cls-21" x="92.02" y="79.51" width="2.75" height="16.58"/>
        <rect class="cls-11" x="88.76" y="83.4" width="9.27" height="1.37" rx="0.69" ry="0.69"/>
        <rect class="cls-4" x="87.34" y="79" width="12.1" height="1.71"/>
        <rect class="cls-21" x="92.74" y="97.1" width="1.32" height="4.09"/>
        <rect class="cls-21" x="92.12" y="102.18" width="2.55" height="1.22"/>
      </g>
      <rect class="cls-7" x="74.09" y="103.4" width="34.36" height="2.56"/>
      <g>
        <rect class="cls-16" x="214.76" y="179.25" width="5.42" height="12.26"/>
        <rect class="cls-6" x="215.34" y="177.08" width="4.4" height="2.18"/>
        <path class="cls-21" d="M216.22,165.6v2.49h2.93V165.6a3.69,3.69,0,0,1,1.68,3.15,3.48,3.48,0,0,1-2,3.07v5.26h-2.45v-5.37a3.31,3.31,0,0,1-2.16-3.18A2.79,2.79,0,0,1,216.22,165.6Z"/>
        <line class="cls-14" x1="214.76" y1="187.73" x2="220.18" y2="187.73"/>
        <line class="cls-14" x1="214.76" y1="185.1" x2="220.18" y2="185.1"/>
        <line class="cls-14" x1="214.76" y1="182.44" x2="220.18" y2="182.44"/>
      </g>
      <g>
        <path class="cls-5" d="M227.33,137h4a4.72,4.72,0,0,1,4.72,4.72v0a0,0,0,0,1,0,0H222.61a0,0,0,0,1,0,0v0A4.72,4.72,0,0,1,227.33,137Z"/>
        <path class="cls-21" d="M221.66,190.81s4.59-2.35,4.59-6.59v-22.5s-.49-13.81-2.73-13.81H235s-2.74-.44-2.74,13.52v23.86a6.68,6.68,0,0,0,3.61,5.08c3.27,1.51-1.36,2.92-1.36,2.92H221.66Z"/>
        <rect class="cls-21" x="213.37" y="140.25" width="31.7" height="7.66" rx="3.83" ry="3.83"/>
        <rect class="cls-7" x="212.34" y="142.99" width="33.75" height="2.19" rx="0.62" ry="0.62"/>
      </g>
      <path class="cls-6" d="M251,193.29a8,8,0,0,0-13.81-3.07,5.36,5.36,0,0,0-8.79,3.07Z"/>
      <path class="cls-11" d="M116.62,192.16a8,8,0,0,0-13.81-3.08,5.31,5.31,0,0,0-3.51-1.32,5.37,5.37,0,0,0-5.27,4.4Z"/>
      <g>
        <g>
          <rect class="cls-11" x="153.81" y="156.05" width="2.27" height="2.75"/>
          <circle class="cls-11" cx="154.94" cy="155.2" r="2.14"/>
          <rect class="cls-11" x="152.63" y="158.81" width="4.63" height="1.61"/>
          <rect class="cls-11" x="153.4" y="160.42" width="3.07" height="28.04"/>
          <rect class="cls-11" x="151.68" y="188.46" width="6.51" height="3.2"/>
        </g>
        <g>
          <path class="cls-32" d="M165.88,173.52a28.51,28.51,0,0,0,4.58,2.49"/>
          <path class="cls-32" d="M188.79,177.61a30.13,30.13,0,0,1-4.58.71"/>
          <path class="cls-32" d="M170.46,176a28.69,28.69,0,0,0,4.58,1.55"/>
          <path class="cls-32" d="M175,177.56a30.09,30.09,0,0,0,4.59.74"/>
          <path class="cls-32" d="M188.79,177.61a29.59,29.59,0,0,0,4.58-1.51"/>
          <path class="cls-32" d="M208.9,160.47a29,29,0,0,1-6.37,9.47"/>
          <path class="cls-32" d="M193.37,176.1a28.32,28.32,0,0,0,4.58-2.45"/>
          <path class="cls-32" d="M202.53,169.94a29.26,29.26,0,0,1-4.58,3.71"/>
          <path class="cls-32" d="M184.21,178.32c-.73.05-1.46.08-2.19.08s-1.61,0-2.39-.1"/>
          <path class="cls-32" d="M165.88,173.52a29.29,29.29,0,0,1-4.58-3.79"/>
          <path class="cls-32" d="M156.48,163.27a29.09,29.09,0,0,0,4.82,6.46"/>
          <line class="cls-33" x1="161.3" y1="169.73" x2="161.3" y2="183.47"/>
          <line class="cls-33" x1="165.88" y1="173.52" x2="165.88" y2="183.47"/>
          <line class="cls-33" x1="170.46" y1="183.47" x2="170.46" y2="176.01"/>
          <line class="cls-33" x1="175.04" y1="183.47" x2="175.04" y2="177.56"/>
          <line class="cls-33" x1="179.63" y1="183.47" x2="179.63" y2="178.3"/>
          <line class="cls-33" x1="184.21" y1="178.32" x2="184.21" y2="183.47"/>
          <line class="cls-33" x1="188.79" y1="177.61" x2="188.79" y2="183.47"/>
          <line class="cls-33" x1="193.37" y1="183.47" x2="193.37" y2="176.1"/>
          <line class="cls-33" x1="197.95" y1="183.47" x2="197.95" y2="173.65"/>
          <line class="cls-33" x1="202.53" y1="169.94" x2="202.53" y2="183.47"/>
          <rect class="cls-11" x="156.48" y="183.47" width="50.89" height="1.77"/>
        </g>
        <g>
          <rect class="cls-11" x="207.77" y="156.05" width="2.27" height="2.75"/>
          <circle class="cls-11" cx="208.9" cy="155.2" r="2.14"/>
          <rect class="cls-11" x="206.59" y="158.81" width="4.63" height="1.61"/>
          <rect class="cls-11" x="207.37" y="160.42" width="3.07" height="28.04"/>
          <rect class="cls-11" x="205.64" y="188.46" width="6.51" height="3.2"/>
        </g>
      </g>
      <g>
        <path class="cls-11" d="M318.63,189.51a2.34,2.34,0,1,0-2.34-2.34,2.34,2.34,0,0,0,2.34,2.34"/>
        <line class="cls-23" x1="318.63" y1="189.51" x2="318.63" y2="187.17"/>
        <line class="cls-23" x1="318.63" y1="189.51" x2="318.63" y2="193.32"/>
      </g>
      <g>
        <rect class="cls-2" x="236.42" y="77.31" width="3" height="14.17"/>
        <rect class="cls-2" x="241.43" y="77.31" width="3" height="14.17"/>
        <rect class="cls-2" x="246.45" y="77.31" width="3" height="14.17"/>
        <rect class="cls-2" x="251.47" y="77.31" width="3" height="14.17"/>
        <rect class="cls-2" x="256.48" y="77.31" width="3" height="14.17"/>
        <rect class="cls-2" x="261.5" y="77.31" width="3" height="14.17"/>
      </g>
      <g>
        <rect class="cls-6" x="283.82" y="60.05" width="3" height="86.15"/>
        <rect class="cls-6" x="288.84" y="60.05" width="3" height="86.15"/>
        <rect class="cls-6" x="293.86" y="60.05" width="3" height="86.15"/>
        <rect class="cls-6" x="298.87" y="60.05" width="3" height="86.15"/>
        <rect class="cls-6" x="303.89" y="60.05" width="3" height="86.15"/>
        <rect class="cls-6" x="308.91" y="60.05" width="3" height="86.15"/>
      </g>
      <g>
        <rect class="cls-2" x="236.42" y="93.31" width="3" height="14.17"/>
        <rect class="cls-2" x="241.43" y="93.31" width="3" height="14.17"/>
        <rect class="cls-2" x="246.45" y="93.31" width="3" height="14.17"/>
        <rect class="cls-2" x="251.47" y="93.31" width="3" height="14.17"/>
        <rect class="cls-2" x="256.48" y="93.31" width="3" height="14.17"/>
        <rect class="cls-2" x="261.5" y="93.31" width="3" height="14.17"/>
      </g>
      <line class="cls-34" x1="279.61" y1="194.69" x2="310.8" y2="194.69"/>
      <path id="bird1" class="cls-35" d="M185.5,160.06a1.89,1.89,0,0,0-2.34,1.37s-1.17-1.83-2.2-.72">
        <animate 
          dur="1s"
          repeatCount="indefinite"
          attributeName="d"
          values=" 
            M185.5,160.06a1.89,1.89,0,0,0-2.34,0.37s-1.17-1.83-2.2-.72;
            M185.5,159.06a1.89,1.89,0,0,0-2.34,2.37s-1.17-1.83-2.2-2.72;
            M185.5,160.06a1.89,1.89,0,0,0-2.34,0.37s-1.17-1.83-2.2-.72;"/>
      </path>
      <path id="bird2" class="cls-35" d="M185.5,160.06a1.89,1.89,0,0,0-2.34,1.37s-1.17-1.83-2.2-.72">
        <animate 
          dur="1s"
          repeatCount="indefinite"
          attributeName="d"
          values=" 
            M200,170.06a1.89,1.89,0,0,0-1.34,0.37s-1.17-1.83-2.2-.72;
            M200,169.06a1.89,1.89,0,0,0-1.74,2.37s-1.17-1.83-2.2-2.72;
            M200,170.06a1.89,1.89,0,0,0-1.34,0.37s-1.17-1.83-2.2-.72;"/>
      </path>
      
      <!-- logo gear -->
      <g id="GEAR">
        <animateTransform
          attributeName="transform"
          type="rotate"
          from="0 140.178 56.756"
          to="360 140.178 56.756"
          dur="4s"
          repeatCount="indefinite" />
        <path class="cls-2" d="M135.21,53.59a7.62,7.62,0,0,1,.48-.64l.85.16a5.17,5.17,0,0,1,2.3-1.33l.28-.82a7,7,0,0,1,.8-.08h.51a6.77,6.77,0,0,1,.8.08l.28.82a5.15,5.15,0,0,1,2.31,1.33l.85-.16a5.84,5.84,0,0,1,.47.64c.09.15.18.3.26.45a6,6,0,0,1,.32.73l-.57.65a5,5,0,0,1,.18,1.34,4.91,4.91,0,0,1-.18,1.33l.57.65a6,6,0,0,1-.32.73c-.08.16-.17.3-.26.45a5.84,5.84,0,0,1-.47.64l-.85-.16a5.15,5.15,0,0,1-2.31,1.33l-.28.82c-.26,0-.52.07-.8.09h-.51c-.27,0-.54,0-.79-.09l-.29-.82a5.17,5.17,0,0,1-2.3-1.33l-.85.16a7.62,7.62,0,0,1-.48-.64c-.09-.15-.17-.29-.25-.45a6,6,0,0,1-.33-.73l.57-.65a5.33,5.33,0,0,1-.17-1.33,5.41,5.41,0,0,1,.17-1.34l-.57-.65A6,6,0,0,1,135,54c.08-.15.16-.3.25-.45"/>
        <path class="cls-21" d="M138.54,52.66a4.65,4.65,0,0,1,.85-.25l.27-.78a4.41,4.41,0,0,1,.52,0,4.53,4.53,0,0,1,.52,0l.27.78a4.89,4.89,0,0,1,.85.25,4.24,4.24,0,0,1,1.09.63,4.54,4.54,0,0,1,.63.61l.82-.16a5.7,5.7,0,0,1,.52.9l-.55.63a4.71,4.71,0,0,1,.22.86,4.26,4.26,0,0,1,0,.63,4.44,4.44,0,0,1,0,.63,4.82,4.82,0,0,1-.22.85l.55.63a5.7,5.7,0,0,1-.52.9l-.82-.16a4,4,0,0,1-.63.61,4.59,4.59,0,0,1-1.09.64,4.87,4.87,0,0,1-.85.24l-.27.78a4.53,4.53,0,0,1-.52,0,4.41,4.41,0,0,1-.52,0l-.27-.78a4.63,4.63,0,0,1-.85-.24,4.4,4.4,0,0,1-1.09-.64,4.1,4.1,0,0,1-.64-.61l-.81.16a5,5,0,0,1-.52-.9l.54-.63a4.06,4.06,0,0,1-.21-.85,4.46,4.46,0,0,1-.05-.63,4.23,4.23,0,0,1,.05-.63,4,4,0,0,1,.21-.86l-.54-.63a5,5,0,0,1,.52-.9l.81.16a4.62,4.62,0,0,1,.64-.61,4.08,4.08,0,0,1,1.09-.63"/>
      </g>
      <g id="C-HEX">
        <polygon class="cls-2" points="144 58.96 140.18 61.17 136.35 58.96 136.35 54.55 140.18 52.34 144 54.55 144 58.96 144 58.96"/>
        <polygon class="cls-21" points="140.18 59.7 142.73 58.23 141.45 57.49 140.18 58.23 138.9 57.49 138.9 56.02 140.18 55.28 141.45 56.02 142.73 55.28 140.18 53.81 137.63 55.28 137.63 58.23 140.18 59.7"/>
      </g>
      <g id="clouds1">
        <animateTransform attributeName="transform"
          type="translate"
          values="
            7 0;
            0 0;
            7 0;"
          keySplines="
            0.5 0 0.5 1;
            0.5 0 0.5 1"
          keyTimes="
            0;0.5;1"
          calcMode="spline"
          begin="0s"
          dur="10s"
          repeatCount="indefinite"/>
        <g>
          <path class="cls-21" d="M327.43,166.77a3.83,3.83,0,0,1-2.91-1.35h-.25a2.47,2.47,0,1,1,0-4.93h.25a3.81,3.81,0,0,1,5.82,0h.25a2.47,2.47,0,1,1,0,4.93h-.25A3.83,3.83,0,0,1,327.43,166.77Z"/>
          <path class="cls-6" d="M327.43,159.65a3.31,3.31,0,0,1,2.7,1.4,2.34,2.34,0,0,1,.47-.05,2,2,0,0,1,0,3.93,2.34,2.34,0,0,1-.47-.05,3.32,3.32,0,0,1-5.4,0,2.31,2.31,0,0,1-.46.05,2,2,0,1,1,0-3.93,2.31,2.31,0,0,1,.46.05,3.33,3.33,0,0,1,2.7-1.4m0-1a4.33,4.33,0,0,0-3.12,1.35h0a3,3,0,1,0,0,5.93h0a4.3,4.3,0,0,0,6.24,0h.05a3,3,0,0,0,0-5.93h-.05a4.31,4.31,0,0,0-3.12-1.35Z"/>
        </g>
        <g>
          <path class="cls-21" d="M137.69,162.38a3.81,3.81,0,0,1-2.9-1.35h-.26a2.47,2.47,0,0,1,0-4.94l.25,0a3.79,3.79,0,0,1,5.82,0l.26,0a2.47,2.47,0,0,1,0,4.94h-.26A3.81,3.81,0,0,1,137.69,162.38Z"/>
          <path class="cls-6" d="M137.69,155.26a3.31,3.31,0,0,1,2.7,1.4,1.84,1.84,0,0,1,.47-.06,2,2,0,0,1,0,3.94,1.84,1.84,0,0,1-.47-.06,3.29,3.29,0,0,1-5.39,0,1.84,1.84,0,0,1-.47.06,2,2,0,0,1,0-3.94,1.84,1.84,0,0,1,.47.06,3.31,3.31,0,0,1,2.69-1.4m0-1a4.36,4.36,0,0,0-3.12,1.34h0a3,3,0,0,0,0,5.94h0a4.3,4.3,0,0,0,6.24,0h.05a3,3,0,0,0,0-5.94h-.05a4.33,4.33,0,0,0-3.12-1.34Z"/>
        </g>
        <g>
          <path class="cls-21" d="M24,70.05a3.83,3.83,0,0,1-2.91-1.35h-.25a2.47,2.47,0,0,1,0-4.94l.25,0a3.79,3.79,0,0,1,5.82,0l.25,0a2.47,2.47,0,1,1,0,4.94H26.9A3.83,3.83,0,0,1,24,70.05Z"/>
          <path class="cls-6" d="M24,62.93a3.3,3.3,0,0,1,2.7,1.4,1.76,1.76,0,0,1,.46-.06,2,2,0,1,1,0,3.94,1.76,1.76,0,0,1-.46-.06,3.3,3.3,0,0,1-5.4,0,1.76,1.76,0,0,1-.46.06,2,2,0,0,1,0-3.94,1.76,1.76,0,0,1,.46.06,3.29,3.29,0,0,1,2.7-1.4m0-1a4.3,4.3,0,0,0-3.12,1.34h0a3,3,0,0,0,0,5.94h0a4.3,4.3,0,0,0,6.24,0h0a3,3,0,1,0,0-5.94h0A4.32,4.32,0,0,0,24,61.93Z"/>
        </g>
        <g>
          <path class="cls-21" d="M91.92,51.8A3.8,3.8,0,0,1,89,50.44l-.25,0a2.47,2.47,0,0,1,0-4.94H89a3.81,3.81,0,0,1,5.82,0h.25a2.47,2.47,0,0,1,0,4.94l-.25,0A3.8,3.8,0,0,1,91.92,51.8Z"/>
          <path class="cls-6" d="M91.92,44.68a3.3,3.3,0,0,1,2.7,1.4,1.76,1.76,0,0,1,.46-.06,2,2,0,0,1,0,3.94,1.76,1.76,0,0,1-.46-.06,3.3,3.3,0,0,1-5.4,0,1.76,1.76,0,0,1-.46.06,2,2,0,0,1,0-3.94,1.76,1.76,0,0,1,.46.06,3.29,3.29,0,0,1,2.7-1.4m0-1A4.3,4.3,0,0,0,88.8,45h0a3,3,0,0,0,0,5.94h0A4.3,4.3,0,0,0,95,51h0a3,3,0,0,0,0-5.94h0a4.32,4.32,0,0,0-3.12-1.34Z"/>
        </g>
        <g>
          <path class="cls-21" d="M288.71,32.2a3.8,3.8,0,0,1-2.91-1.36l-.25,0a2.47,2.47,0,0,1,0-4.94h.25a3.81,3.81,0,0,1,5.82,0h.25a2.47,2.47,0,0,1,0,4.94l-.25,0A3.8,3.8,0,0,1,288.71,32.2Z"/>
          <path class="cls-6" d="M288.71,25.08a3.3,3.3,0,0,1,2.7,1.4,1.76,1.76,0,0,1,.46-.06,2,2,0,0,1,0,3.94,1.76,1.76,0,0,1-.46-.06,3.3,3.3,0,0,1-5.4,0,1.76,1.76,0,0,1-.46.06,2,2,0,0,1,0-3.94,1.76,1.76,0,0,1,.46.06,3.29,3.29,0,0,1,2.7-1.4m0-1a4.3,4.3,0,0,0-3.12,1.34h0a3,3,0,0,0,0,5.94h0a4.3,4.3,0,0,0,6.24,0h0a3,3,0,0,0,0-5.94h0a4.32,4.32,0,0,0-3.12-1.34Z"/>
        </g>
      </g>
      <g id="clouds2">
        <animateTransform attributeName="transform"
        type="translate"
        values="
          0 0;
          7 0;
          0 0;"
        keySplines="
          0.5 0 0.5 1;
          0.5 0 0.5 1"
        keyTimes="
          0;0.5;1"
        calcMode="spline"
        begin="0s"
        dur="10s"
        repeatCount="indefinite"/>
        <g>
          <path class="cls-21" d="M150.62,157a2.77,2.77,0,0,1-2.06-.92h-.11a1.85,1.85,0,0,1,0-3.7h.11a2.77,2.77,0,0,1,2.06-.92,2.81,2.81,0,0,1,2.07.92h.1a1.85,1.85,0,1,1,0,3.7h-.1A2.81,2.81,0,0,1,150.62,157Z"/>
          <path class="cls-6" d="M150.62,151.91a2.29,2.29,0,0,1,1.86,1,1.12,1.12,0,0,1,.32,0,1.35,1.35,0,0,1,0,2.7,1.12,1.12,0,0,1-.32,0,2.27,2.27,0,0,1-3.71,0,1.12,1.12,0,0,1-.32,0,1.35,1.35,0,0,1,0-2.7,1.12,1.12,0,0,1,.32,0,2.27,2.27,0,0,1,1.85-1m0-1a3.24,3.24,0,0,0-2.27.92,2.35,2.35,0,0,0,0,4.7,3.27,3.27,0,0,0,4.55,0,2.35,2.35,0,0,0,0-4.7,3.27,3.27,0,0,0-2.28-.92Z"/>
        </g>
        <g>
          <path class="cls-21" d="M79.82,45.49a3.34,3.34,0,0,1-2.54-1.17h-.19a2.2,2.2,0,1,1,0-4.39h.19a3.33,3.33,0,0,1,5.07,0h.19a2.2,2.2,0,1,1,0,4.39h-.19A3.33,3.33,0,0,1,79.82,45.49Z"/>
          <path class="cls-6" d="M79.82,39.28a2.83,2.83,0,0,1,2.32,1.21,1.37,1.37,0,0,1,.4-.05,1.7,1.7,0,1,1,0,3.39,1.83,1.83,0,0,1-.4,0A2.83,2.83,0,0,1,79.82,45a2.86,2.86,0,0,1-2.33-1.21,1.75,1.75,0,0,1-.4,0,1.7,1.7,0,1,1,0-3.39,1.33,1.33,0,0,1,.4.05,2.86,2.86,0,0,1,2.33-1.21m0-1a3.83,3.83,0,0,0-2.75,1.16,2.7,2.7,0,0,0,0,5.39A3.88,3.88,0,0,0,79.82,46a3.83,3.83,0,0,0,2.74-1.16,2.7,2.7,0,0,0,0-5.39,3.79,3.79,0,0,0-2.74-1.16Z"/>
        </g>
        <g>
          <path class="cls-21" d="M331.17,51.16a3.79,3.79,0,0,1-2.91-1.36l-.26,0a2.47,2.47,0,0,1,0-4.94h.26a3.81,3.81,0,0,1,5.82,0h.25a2.47,2.47,0,1,1,0,4.94l-.25,0A3.82,3.82,0,0,1,331.17,51.16Z"/>
          <path class="cls-6" d="M331.17,44a3.28,3.28,0,0,1,2.69,1.4,1.84,1.84,0,0,1,.47-.06,2,2,0,1,1,0,3.94,1.84,1.84,0,0,1-.47-.06,3.29,3.29,0,0,1-5.39,0,1.84,1.84,0,0,1-.47.06,2,2,0,0,1,0-3.94,1.84,1.84,0,0,1,.47.06,3.29,3.29,0,0,1,2.7-1.4m0-1a4.29,4.29,0,0,0-3.12,1.34H328a3,3,0,0,0,0,5.94h.05a4.3,4.3,0,0,0,6.24,0h0a3,3,0,1,0,0-5.94h0A4.32,4.32,0,0,0,331.17,43Z"/>
        </g>
        <g>
          <path class="cls-21" d="M278.45,41.56a3.81,3.81,0,0,1-2.91-1.35h-.26a2.47,2.47,0,1,1,0-4.94h.26a3.8,3.8,0,0,1,5.81,0h.26a2.47,2.47,0,0,1,0,4.94h-.26A3.81,3.81,0,0,1,278.45,41.56Z"/>
          <path class="cls-6" d="M278.44,34.44a3.29,3.29,0,0,1,2.7,1.4,1.84,1.84,0,0,1,.47-.06,2,2,0,0,1,0,3.94,1.84,1.84,0,0,1-.47-.06,3.29,3.29,0,0,1-5.39,0,1.84,1.84,0,0,1-.47.06,2,2,0,1,1,0-3.94,1.84,1.84,0,0,1,.47.06,3.28,3.28,0,0,1,2.69-1.4m0-1a4.32,4.32,0,0,0-3.12,1.34h0a3,3,0,1,0,0,5.94h0a4.31,4.31,0,0,0,6.25,0h0a3,3,0,0,0,0-5.94h0a4.33,4.33,0,0,0-3.13-1.34Z"/>
        </g>
        <g>
          <path class="cls-21" d="M191.5,81.68a3.81,3.81,0,0,1-2.9-1.35h-.26a2.47,2.47,0,0,1,0-4.94l.26,0a3.78,3.78,0,0,1,5.81,0l.26,0a2.47,2.47,0,0,1,0,4.94h-.26A3.81,3.81,0,0,1,191.5,81.68Z"/>
          <path class="cls-6" d="M191.5,74.56a3.31,3.31,0,0,1,2.7,1.4,1.84,1.84,0,0,1,.47-.06,2,2,0,0,1,0,3.94,1.84,1.84,0,0,1-.47-.06,3.29,3.29,0,0,1-5.39,0,1.84,1.84,0,0,1-.47.06,2,2,0,0,1,0-3.94,1.84,1.84,0,0,1,.47.06,3.31,3.31,0,0,1,2.69-1.4m0-1a4.32,4.32,0,0,0-3.12,1.34h0a3,3,0,0,0,0,5.94h0a4.31,4.31,0,0,0,6.25,0h0a3,3,0,0,0,0-5.94h0a4.29,4.29,0,0,0-3.12-1.34Z"/>
        </g>
      </g>
      <g id="boats2">
        <animateTransform attributeName="transform"
          type="translate"
          values="
            7 0;
            0 0;
            7 0;"
          keySplines="
            0.5 0 0.5 1;
            0.5 0 0.5 1"
          keyTimes="
            0;0.5;1"
          calcMode="spline"
          begin="0s"
          dur="10s"
          repeatCount="indefinite"/>
        <path class="cls-2" d="M271.75,205.75v-2.46h-4.1s-1.65.47-1.76,1.46a4.07,4.07,0,0,1-.46,1.56Z"/>
        <polygon class="cls-6" points="276.39 205.63 263.77 205.96 264.98 208.45 274.71 208.45 276.39 205.63"/>
        <polygon class="cls-36" points="274.56 205.75 274.56 198.86 272.88 200.61 274.56 203.47 274.56 205.75"/>
        <line class="cls-34" x1="254.51" y1="208.45" x2="259.63" y2="208.45"/>
        <line class="cls-34" x1="263" y1="208.45" x2="285.4" y2="208.45"/>
        <line class="cls-34" x1="290.01" y1="208.45" x2="295.43" y2="208.45"/>
      </g>
      <g id="boats1">
        <animateTransform 
          attributeName="transform"
          type="translate"
          values="
            0 0;
            7 0;
            0 0;"
          keySplines="
            0.5 0 0.5 1;
            0.5 0 0.5 1"
          keyTimes="
            0;0.5;1"
          calcMode="spline"
          begin="0s"
          dur="10s"
          repeatCount="indefinite"/>
        <rect class="cls-16" x="59.6" y="205.54" width="4.07" height="2.08"/>
        <polygon class="cls-6" points="179.77 204.42 184.2 211.05 175.56 211.05 179.77 204.42"/>
        <line class="cls-19" x1="179.88" y1="211.05" x2="179.88" y2="204.42"/>
        <polygon class="cls-4" points="175.56 212.4 184.01 212.4 183.32 214.33 176.4 214.33 175.56 212.4"/>
        <line class="cls-34" x1="53.59" y1="214.33" x2="78.29" y2="214.33"/>
        <line class="cls-34" x1="81.61" y1="214.33" x2="87.56" y2="214.33"/>
        <polygon class="cls-2" points="55.06 214.33 54.13 211.5 73.21 210.62 72.33 214.33 55.06 214.33"/>
        <path class="cls-6" d="M59.21,207.64l9-.44a1.48,1.48,0,0,1,1.42,1.56v2l-12.39.57S56.38,207.78,59.21,207.64Z"/>
        <line class="cls-20" x1="60.96" y1="207.56" x2="60.96" y2="211.18"/>
        <line class="cls-20" x1="65.94" y1="207.31" x2="65.94" y2="210.95"/>
        <line class="cls-18" x1="162.71" y1="214.33" x2="184.58" y2="214.33"/>
        <line class="cls-18" x1="187.21" y1="214.33" x2="198.53" y2="214.33"/>
      </g>
      <line class="cls-34" x1="71.23" y1="197.71" x2="103.93" y2="197.71"/>
      <line class="cls-34" x1="43.1" y1="195.71" x2="64.92" y2="195.71"/>
      <line class="cls-34" x1="18.66" y1="193.12" x2="40.48" y2="193.12"/>
      <rect class="cls-5" x="267.12" y="126.32" width="16.72" height="20.74"/>
      <rect class="cls-21" x="266.45" y="124.62" width="18.05" height="2.34"/>
      <path class="cls-9" d="M69.25,192.62h253a22.31,22.31,0,0,0,0-44.61H69.25"/>
    </g>
    <g>
      <path class="cls-4" d="M227.33,137h4a4.72,4.72,0,0,1,4.72,4.72v0a0,0,0,0,1,0,0H222.61a0,0,0,0,1,0,0v0A4.72,4.72,0,0,1,227.33,137Z"/>
      <path class="cls-21" d="M225.13,151.05h8c.69-2.86,1.59-3.12,1.82-3.14H223.52C224.21,147.91,224.74,149.23,225.13,151.05Z"/>
      <rect class="cls-21" x="213.37" y="140.25" width="31.7" height="7.66" rx="3.83" ry="3.83"/>
      <rect class="cls-7" x="212.34" y="142.99" width="33.75" height="2.19" rx="0.62" ry="0.62"/>
    </g>
  </g>
  <g id="GEARS">
    <g id="small-red-gear">
      <animateTransform
        attributeName="transform"
        type="rotate"
        from="0 191.699 94.725"
        to="360 191.699 94.725"
        dur="4s"
        repeatCount="indefinite" />
      <path class="cls-4" d="M195.66,94.73a5.46,5.46,0,0,0,0-.58l.87-.27-.33-1.1-.87.27a4,4,0,0,0-1.23-1.5l.43-.81-1-.54-.43.8a4,4,0,0,0-1.35-.24,3.68,3.68,0,0,0-.58,0l-.26-.87-1.1.33.26.87a3.9,3.9,0,0,0-1.5,1.23l-.8-.43-.55,1,.81.43a4,4,0,0,0-.2,1.93l-.87.26.33,1.1.87-.27a3.92,3.92,0,0,0,1.23,1.5l-.43.81,1,.54.43-.8a4,4,0,0,0,1.35.24,3.68,3.68,0,0,0,.58,0l.26.87,1.1-.33-.26-.87a4,4,0,0,0,1.5-1.23l.8.44.54-1-.8-.43A4,4,0,0,0,195.66,94.73Z"/>
      <circle class="cls-37" cx="191.7" cy="94.73" r="1.86"/>
    </g>
    <g class="cls-38">
      <g>
        <path class="cls-1" d="M84.51,196a3,3,0,0,1,.08-.68L81,193.25a7.35,7.35,0,0,0-.54,2.74,7.26,7.26,0,0,0,.54,2.73l3.56-2.05A3.08,3.08,0,0,1,84.51,196Z"/>
        <path class="cls-1" d="M86.72,193v-4.1A7.2,7.2,0,0,0,82,191.6l3.56,2.06A3.08,3.08,0,0,1,86.72,193Z"/>
        <path class="cls-1" d="M93.36,191.6a7.2,7.2,0,0,0-4.73-2.73V193a3.12,3.12,0,0,1,1.18.69Z"/>
        <path class="cls-1" d="M88.73,194.28l-.1-.06a1.92,1.92,0,0,0-.95-.24,2,2,0,0,0-1,.24l-.1.06a2,2,0,0,0-1,1.65v.12a2,2,0,0,0,1,1.65l.1.06a2.07,2.07,0,0,0,1,.24,2,2,0,0,0,.95-.24l.1-.06a2,2,0,0,0,1-1.65v-.12A2,2,0,0,0,88.73,194.28Z"/>
        <path class="cls-1" d="M90.77,195.31a3.73,3.73,0,0,1,.07.68,3.82,3.82,0,0,1-.07.68l3.55,2.05a7.07,7.07,0,0,0,.54-2.73,7.16,7.16,0,0,0-.54-2.74Z"/>
        <path class="cls-39" d="M82,200.37a7.17,7.17,0,0,0,4.73,2.74V199a3.06,3.06,0,0,1-1.17-.68Z"/>
        <path class="cls-39" d="M88.63,199v4.11a7.17,7.17,0,0,0,4.73-2.74l-3.55-2.05A3.1,3.1,0,0,1,88.63,199Z"/>
        
        <!-- big red gear -->
        <path class="cls-4" d="M99.9,196.39v-.8a.56.56,0,0,0-.55-.56h-.79a10.69,10.69,0,0,0-.46-2.33l.72-.3a.55.55,0,0,0,.31-.72l-.31-.74a.56.56,0,0,0-.73-.3l-.72.3a11,11,0,0,0-1.32-2l.55-.55a.54.54,0,0,0,0-.78l-.56-.57a.56.56,0,0,0-.79,0l-.55.55a11.48,11.48,0,0,0-2-1.32l.3-.72a.55.55,0,0,0-.31-.72l-.73-.31a.56.56,0,0,0-.73.3l-.3.72a11.06,11.06,0,0,0-2.33-.46v-.78a.56.56,0,0,0-.55-.56h-.8a.56.56,0,0,0-.56.56v.78a11.31,11.31,0,0,0-2.33.46l-.3-.72a.55.55,0,0,0-.72-.3l-.74.31a.55.55,0,0,0-.3.72l.3.72a11.57,11.57,0,0,0-2,1.32l-.55-.55a.56.56,0,0,0-.79,0l-.56.57a.54.54,0,0,0,0,.78l.55.55a11.57,11.57,0,0,0-1.32,2l-.72-.3a.56.56,0,0,0-.73.3l-.3.74a.55.55,0,0,0,.3.72l.72.3a11.31,11.31,0,0,0-.46,2.33H76a.56.56,0,0,0-.56.56v.8a.56.56,0,0,0,.56.55h.78a11.06,11.06,0,0,0,.46,2.33l-.72.3a.56.56,0,0,0-.3.73l.3.74a.57.57,0,0,0,.73.3L78,201a11.48,11.48,0,0,0,1.32,2l-.55.56a.54.54,0,0,0,0,.78l.56.57a.57.57,0,0,0,.79,0l.55-.56a11,11,0,0,0,2,1.32l-.3.73a.55.55,0,0,0,.3.72l.74.31a.56.56,0,0,0,.72-.3l.3-.72a11.3,11.3,0,0,0,2.33.45v.79a.55.55,0,0,0,.56.55h.8a.55.55,0,0,0,.55-.55v-.79a11,11,0,0,0,2.33-.45l.3.72a.57.57,0,0,0,.73.3l.73-.31a.56.56,0,0,0,.31-.72l-.3-.73a10.93,10.93,0,0,0,2-1.32l.55.56a.57.57,0,0,0,.79,0l.56-.57a.54.54,0,0,0,0-.78l-.55-.56a10.93,10.93,0,0,0,1.32-2l.72.3a.57.57,0,0,0,.73-.3l.31-.74a.56.56,0,0,0-.31-.73l-.72-.3a10.46,10.46,0,0,0,.46-2.33h.79A.55.55,0,0,0,99.9,196.39Zm-11.27-7.52a7.2,7.2,0,0,1,4.73,2.73l-3.55,2.06a3.12,3.12,0,0,0-1.18-.69ZM89.69,196v.06a2,2,0,0,1-1,1.65l-.1.06a2,2,0,0,1-.95.24,2.07,2.07,0,0,1-1-.24l-.1-.06a2,2,0,0,1-1-1.65v-.12a2,2,0,0,1,1-1.65l.1-.06a2,2,0,0,1,1-.24,1.92,1.92,0,0,1,.95.24l.1.06a2,2,0,0,1,1,1.65Zm-3-7.12V193a3.08,3.08,0,0,0-1.17.69L82,191.6A7.2,7.2,0,0,1,86.72,188.87ZM80.49,196a7.35,7.35,0,0,1,.54-2.74l3.56,2.06a3,3,0,0,0-.08.68,3.08,3.08,0,0,0,.08.68L81,198.72A7.26,7.26,0,0,1,80.49,196Zm6.23,7.12A7.17,7.17,0,0,1,82,200.37l3.56-2.05a3.06,3.06,0,0,0,1.17.68Zm1.91,0V199a3.1,3.1,0,0,0,1.18-.68l3.55,2.05A7.17,7.17,0,0,1,88.63,203.11Zm5.69-4.39-3.55-2.05a3.82,3.82,0,0,0,.07-.68,3.73,3.73,0,0,0-.07-.68l3.55-2.06a7.16,7.16,0,0,1,.54,2.74A7.07,7.07,0,0,1,94.32,198.72Z">
          <animateTransform
            attributeName="transform"
            type="rotate"
            from="0 87.677 195.988"
            to="360 87.677 195.988"
            dur="4s"
            repeatCount="indefinite" />  
        </path>
      </g>
    </g>

    <!-- navy gear -->
    <g id="navy-gear">
      <animateTransform
          attributeName="transform"
          type="rotate"
          from="0 43.714 181.512"
          to="360 43.714 181.512"
          dur="4s"
          repeatCount="indefinite" />
      <path class="cls-40" d="M52.27,182.57v-2.12H50.52a6.42,6.42,0,0,0-.38-1.43l1.51-.87-1.06-1.83-1.51.87a7.3,7.3,0,0,0-1-1l.87-1.52-1.84-1.06-.87,1.51a7.33,7.33,0,0,0-1.43-.38V173H42.65v1.74a7.42,7.42,0,0,0-1.42.38l-.88-1.51-1.83,1.06.87,1.52a7.3,7.3,0,0,0-1,1l-1.51-.87-1.06,1.83,1.51.87a7,7,0,0,0-.39,1.43H35.16v2.12H36.9a6.86,6.86,0,0,0,.39,1.43l-1.51.87,1.06,1.84,1.51-.88a6.89,6.89,0,0,0,1,1l-.87,1.51,1.83,1.06.88-1.51a6.2,6.2,0,0,0,1.42.38v1.75h2.12v-1.75a6.15,6.15,0,0,0,1.43-.38l.87,1.51,1.84-1.06L48,186.88a6.89,6.89,0,0,0,1-1l1.51.88,1.06-1.84L50.14,184a6.28,6.28,0,0,0,.38-1.43Z"/>
      <circle class="cls-41" cx="43.71" cy="181.51" r="2.71"/>
      <circle class="cls-41" cx="43.71" cy="181.51" r="1.7"/>
    </g>

    <g>
      <!-- far right yellow gear -->
      <path class="cls-16" d="M315.21,180.2a4.77,4.77,0,0,0-.07-.76l1.15-.34-.44-1.45-1.14.35a5.16,5.16,0,0,0-1.61-2l.56-1.06-1.32-.71-.57,1.05A5.19,5.19,0,0,0,310,175a4.77,4.77,0,0,0-.76.06l-.35-1.15-1.44.44.35,1.14a5.25,5.25,0,0,0-2,1.61l-1.06-.56-.71,1.33,1.05.56a5.23,5.23,0,0,0-.31,1.77,4.77,4.77,0,0,0,.06.76l-1.15.35.44,1.44,1.14-.34a5.33,5.33,0,0,0,1.61,2l-.56,1.05,1.32.71.57-1a5.19,5.19,0,0,0,1.77.32,4.77,4.77,0,0,0,.76-.07l.35,1.15,1.44-.43-.34-1.15a5.31,5.31,0,0,0,2-1.61l1.05.57.71-1.33-1.05-.57A5.15,5.15,0,0,0,315.21,180.2Z">
        <animateTransform
            attributeName="transform"
            type="rotate"
            from="0 310 180.202"
            to="360 310 180.202"
            dur="2s"
            repeatCount="indefinite"/>
      </path>
      <g>
        <path class="cls-21" d="M310,182.78a2.58,2.58,0,1,1,2.57-2.58A2.58,2.58,0,0,1,310,182.78Z"/>
        <path class="cls-2" d="M310,177.75a2.45,2.45,0,1,1-2.45,2.45,2.45,2.45,0,0,1,2.45-2.45m0-.25a2.7,2.7,0,1,0,2.7,2.7,2.7,2.7,0,0,0-2.7-2.7Z"/>
      </g>
      <g>
        <path class="cls-21" d="M310,181.55a1.35,1.35,0,1,1,1.35-1.35A1.35,1.35,0,0,1,310,181.55Z"/>
        <path class="cls-2" d="M310,179a1.23,1.23,0,1,1-1.22,1.22A1.23,1.23,0,0,1,310,179m0-.25a1.48,1.48,0,1,0,1.48,1.47,1.47,1.47,0,0,0-1.48-1.47Z"/>
      </g>
    </g>
    <g class="cls-42">

      <!-- red gear1 -->
      <g id="redgear1">
        <animateTransform
          attributeName="transform"
          type="rotate"
          from="0 30.188 192.26"
          to="-360 30.188 192.26"
          dur="4s"
          repeatCount="indefinite" />
        <path class="cls-4" d="M38.74,193.32V191.2H37a7.52,7.52,0,0,0-.38-1.43l1.51-.87-1.06-1.84-1.52.88a6.89,6.89,0,0,0-1-1.05l.87-1.51-1.83-1.06-.88,1.51a7.42,7.42,0,0,0-1.42-.38v-1.74H29.13v1.74a7.52,7.52,0,0,0-1.43.38l-.87-1.51L25,185.38l.88,1.51a6.52,6.52,0,0,0-1.05,1.05l-1.51-.88-1.06,1.84,1.51.87a6.28,6.28,0,0,0-.38,1.43H21.63v2.12h1.75a6.28,6.28,0,0,0,.38,1.43l-1.51.87,1.06,1.84,1.51-.88a6.52,6.52,0,0,0,1.05,1L25,199.14l1.84,1.06.87-1.51a7.52,7.52,0,0,0,1.43.38v1.74h2.12v-1.74a7.42,7.42,0,0,0,1.42-.38l.88,1.51,1.83-1.06-.87-1.51a6.89,6.89,0,0,0,1-1l1.52.88,1.06-1.84-1.51-.87a7.72,7.72,0,0,0,.38-1.43Z"/>
        <circle class="cls-41" cx="30.19" cy="192.26" r="2.71"/>
        <circle class="cls-41" cx="30.19" cy="192.26" r="1.7"/>
      </g>
    </g>
    <g class="cls-43">

      <!-- red gear1 -->
      <g id="redgear2">
        <animateTransform
          attributeName="transform"
          type="rotate"
          from="0 80.637 147.101"
          to="360 80.637 147.101"
          dur="4s"
          repeatCount="indefinite" />
        <path class="cls-4" d="M89.19,148.16V146H87.45a7,7,0,0,0-.39-1.43l1.52-.87-1.06-1.83-1.52.87a6.89,6.89,0,0,0-1-1.05l.87-1.51L84,139.16l-.88,1.51a7.42,7.42,0,0,0-1.42-.38v-1.74H79.58v1.74a7.33,7.33,0,0,0-1.43.38l-.87-1.51-1.84,1.06.87,1.51a6.89,6.89,0,0,0-1,1.05l-1.51-.87-1.06,1.83,1.51.87a6.42,6.42,0,0,0-.38,1.43H72.08v2.12h1.75a6.28,6.28,0,0,0,.38,1.43l-1.51.87,1.06,1.84,1.51-.88a6.89,6.89,0,0,0,1,1.05L75.44,154,77.28,155l.87-1.51a6.68,6.68,0,0,0,1.43.38v1.75H81.7v-1.75a6.75,6.75,0,0,0,1.42-.38L84,155,85.83,154,85,152.47a6.89,6.89,0,0,0,1-1.05l1.52.88,1.06-1.84-1.52-.87a6.86,6.86,0,0,0,.39-1.43Z"/>
        <circle class="cls-41" cx="80.64" cy="147.1" r="2.71"/>
        <circle class="cls-41" cx="80.64" cy="147.1" r="1.7"/>
      </g>
    </g>
    <g class="cls-44">
      <g id="cyan0-gear">
        <path class="cls-45" d="M44.73,104v-2.12H43a6.86,6.86,0,0,0-.39-1.43l1.51-.87L43.05,97.7l-1.51.88a6.89,6.89,0,0,0-1-1L41.37,96,39.53,95l-.87,1.51a6.15,6.15,0,0,0-1.43-.38V94.34H35.11v1.75a6.2,6.2,0,0,0-1.42.38L32.82,95,31,96l.87,1.51a6.89,6.89,0,0,0-1,1L29.3,97.7l-1.06,1.84,1.51.87a6.86,6.86,0,0,0-.39,1.43H27.62V104h1.74a6.77,6.77,0,0,0,.39,1.42l-1.51.88,1.06,1.83,1.51-.87a7.3,7.3,0,0,0,1,1L31,109.78l1.84,1.06.87-1.51a7.42,7.42,0,0,0,1.42.38v1.74h2.12v-1.74a7.33,7.33,0,0,0,1.43-.38l.87,1.51,1.84-1.06-.87-1.52a7.3,7.3,0,0,0,1-1l1.51.87,1.06-1.83-1.51-.88A6.77,6.77,0,0,0,43,104Z">
          <animateTransform
            attributeName="transform"
            type="rotate"
            from="0 36.175 102.898"
            to="360 36.175 102.898"
            dur="4s"
            repeatCount="indefinite" />
        </path>
        <circle class="cls-41" cx="36.17" cy="102.9" r="2.71"/>
        <circle class="cls-41" cx="36.17" cy="102.9" r="1.7"/>
      </g>
    </g>
    <g class="cls-46">
      <g>
        <!-- unlabeled yellow gear -->
        <path class="cls-16" d="M63.19,196v-2.12H61.45a7.33,7.33,0,0,0-.38-1.43l1.51-.87-1.06-1.84-1.51.87a6.89,6.89,0,0,0-1-1l.87-1.51L58,187l-.87,1.51a6.42,6.42,0,0,0-1.43-.38v-1.75H53.58v1.75a6.28,6.28,0,0,0-1.43.38L51.28,187,49.44,188l.88,1.51a6.89,6.89,0,0,0-1,1l-1.51-.87-1.06,1.84,1.51.87a6.68,6.68,0,0,0-.38,1.43H46.08V196h1.75a6.75,6.75,0,0,0,.38,1.42l-1.51.88,1.06,1.83,1.51-.87a6.89,6.89,0,0,0,1,1l-.88,1.51,1.84,1.06.87-1.51a6.86,6.86,0,0,0,1.43.39v1.74H55.7v-1.74a7,7,0,0,0,1.43-.39l.87,1.51,1.83-1.06L59,200.28a6.89,6.89,0,0,0,1-1l1.51.87,1.06-1.83-1.51-.88a7.42,7.42,0,0,0,.38-1.42Z">
          <animateTransform
            attributeName="transform"
            type="rotate"
            from="0 54.639 194.916"
            to="-360 54.639 194.916"
            dur="4s"
            repeatCount="indefinite" />

        </path>
        <circle class="cls-41" cx="54.64" cy="194.92" r="2.71"/>
        <circle class="cls-41" cx="54.64" cy="194.92" r="1.7"/>
      </g>
    </g>
    <g class="cls-47">

    <!-- big cyan gear -->
      <g id="big-cyan-gear">
        <animateTransform
          attributeName="transform"
          type="rotate"
          from="0 296.29 195.845"
          to="-360 296.29 195.84"
          dur="4s"
          repeatCount="indefinite" />
        <path class="cls-2" d="M309.51,197.48v-3.27h-2.69a10.73,10.73,0,0,0-.59-2.21l2.33-1.35-1.64-2.84-2.33,1.35a10.72,10.72,0,0,0-1.62-1.61l1.35-2.34-2.84-1.64-1.35,2.34a10.2,10.2,0,0,0-2.2-.59v-2.7h-3.28v2.7a10.2,10.2,0,0,0-2.2.59l-1.35-2.34-2.84,1.64,1.35,2.34a10.72,10.72,0,0,0-1.62,1.61l-2.33-1.35L284,190.65l2.33,1.35a10.73,10.73,0,0,0-.59,2.21h-2.7v3.27h2.7a10.73,10.73,0,0,0,.59,2.21L284,201l1.64,2.84,2.33-1.35a10.72,10.72,0,0,0,1.62,1.61l-1.35,2.34,2.84,1.64,1.35-2.34a10.2,10.2,0,0,0,2.2.59v2.7h3.28v-2.7a10.2,10.2,0,0,0,2.2-.59l1.35,2.34,2.84-1.64L303,204.14a10.72,10.72,0,0,0,1.62-1.61l2.33,1.35,1.64-2.84-2.33-1.35a10.73,10.73,0,0,0,.59-2.21Z"/>
        <circle class="cls-41" cx="296.29" cy="195.84" r="4.19"/>
        <circle class="cls-41" cx="296.29" cy="195.84" r="2.63"/>
      </g>
    </g>
    <g class="cls-48">

    <!-- small white gear -->
      <g id="small-white-gear">
        <animateTransform
          attributeName="transform"
          type="rotate"
          from="0 185.533 102.134"
          to="-360 185.533 102.134"
          dur="4s"
          repeatCount="indefinite" />
        <path class="cls-37" d="M189.5,102.13a3.79,3.79,0,0,0-.05-.58l.87-.26-.33-1.1-.87.27A3.93,3.93,0,0,0,187.89,99l.43-.8-1-.54-.43.8a4,4,0,0,0-1.35-.24,3.79,3.79,0,0,0-.58,0l-.26-.87-1.1.33.26.87a4,4,0,0,0-1.5,1.23l-.8-.44-.54,1,.8.44a4,4,0,0,0-.24,1.34,3.68,3.68,0,0,0,.05.58l-.88.27.33,1.1.88-.27a4,4,0,0,0,1.22,1.5l-.43.81,1,.54.43-.8a4.08,4.08,0,0,0,1.35.24,3.68,3.68,0,0,0,.58,0l.27.87,1.09-.33-.26-.87a3.9,3.9,0,0,0,1.5-1.23l.81.43.54-1-.8-.43A4,4,0,0,0,189.5,102.13Z"/>
        <circle class="cls-37" cx="185.53" cy="102.13" r="1.86"/>
      </g>
    </g>

    <!-- small yellow gear -->
    <g class="cls-49">
      <g id="small-yellow-gear">
        <animateTransform
          attributeName="transform"
          type="rotate"
          from="0 196.603 103.304"
          to="-360 196.603 103.304"
          dur="4s"
          repeatCount="indefinite" />
        <path class="cls-16" d="M200.57,103.3a3.79,3.79,0,0,0,0-.58l.87-.26-.33-1.1-.87.27a3.93,3.93,0,0,0-1.23-1.51l.43-.8-1-.54-.43.8a4,4,0,0,0-1.35-.24,3.79,3.79,0,0,0-.58,0l-.26-.87-1.1.33.26.87a4,4,0,0,0-1.5,1.23l-.8-.44-.54,1,.8.44a4,4,0,0,0-.24,1.34,3.68,3.68,0,0,0,.05.58l-.88.27.33,1.1L193,105a4,4,0,0,0,1.22,1.5l-.43.81,1,.54.43-.8a4.08,4.08,0,0,0,1.35.24,3.68,3.68,0,0,0,.58,0l.27.87,1.09-.33-.26-.87a3.9,3.9,0,0,0,1.5-1.23l.81.43.54-1-.8-.43A4,4,0,0,0,200.57,103.3Z"/>
        <circle class="cls-37" cx="196.6" cy="103.3" r="1.86"/>
      </g>
    </g>

    <!-- tiny yellow gear -->
    <g class="cls-50">
      <g id="tiny-yellow-gear">
        <animateTransform
          attributeName="transform"
          type="rotate"
          from="0 94.816 146.609"
          to="-360 94.816 146.609"
          dur="2s"
          repeatCount="indefinite" />
        <path class="cls-16" d="M98.78,146.61a3.68,3.68,0,0,0,0-.58l.87-.26-.33-1.1-.87.26a3.9,3.9,0,0,0-1.23-1.5l.44-.8-1-.55-.44.81a3.75,3.75,0,0,0-1.34-.24,3.69,3.69,0,0,0-.58,0l-.27-.87-1.1.33.27.87a4,4,0,0,0-1.5,1.23l-.81-.43-.54,1,.8.43a4,4,0,0,0-.24,1.35,3.68,3.68,0,0,0,.05.58l-.87.26.33,1.1.87-.26a4,4,0,0,0,1.23,1.5l-.43.8,1,.54.43-.8a4,4,0,0,0,1.35.24,5.65,5.65,0,0,0,.58,0l.26.87,1.1-.33-.27-.87A4,4,0,0,0,98,149l.8.43.54-1-.8-.43A4,4,0,0,0,98.78,146.61Z"/>
        <circle class="cls-37" cx="94.82" cy="146.61" r="1.86"/>
      </g>
    </g>
  </g>

  <!-- windmill -->
  <g id="WINDMILL">
    <animateTransform
      attributeName="transform"
      type="rotate"
      from="0 167.1 84.071"
      to="360 167.1 84.071"
      dur="4s"
      repeatCount="indefinite" />
    <g>
      <g>
        <line class="cls-19" x1="170.01" y1="81.13" x2="164.16" y2="86.99"/>
        <g>
          <rect class="cls-16" x="172.58" y="70.98" width="3.32" height="11.91" transform="translate(105.43 -100.67) rotate(45)"/>
          <rect class="cls-16" x="158.3" y="85.25" width="3.32" height="11.91" transform="translate(111.35 -86.4) rotate(45)"/>
        </g>
      </g>
      <g>
        <line class="cls-19" x1="164.16" y1="81.16" x2="170.01" y2="87.01"/>
        <g>
          <rect class="cls-16" x="158.3" y="70.98" width="3.32" height="11.91" transform="translate(-7.55 135.64) rotate(-45)"/>
          <rect class="cls-16" x="172.58" y="85.25" width="3.32" height="11.91" transform="translate(-13.46 149.92) rotate(-45)"/>
        </g>
      </g>
      <circle class="cls-19" cx="167.1" cy="84.07" r="1.94"/>
    </g>
  </g>
</svg>
